<mxfile host="Electron" agent="Mozilla/5.0 (Macintosh; Intel Mac OS X 10_15_7) AppleWebKit/537.36 (KHTML, like Gecko) draw.io/24.7.5 Chrome/126.0.6478.183 Electron/31.3.0 Safari/537.36" version="24.7.5">
  <diagram name="Страница — 1" id="AA9cZ-glA_Fp__WyKTjR">
    <mxGraphModel dx="2870" dy="973" grid="1" gridSize="10" guides="1" tooltips="1" connect="1" arrows="1" fold="1" page="1" pageScale="1" pageWidth="827" pageHeight="1169" math="0" shadow="0">
      <root>
        <mxCell id="0" />
        <mxCell id="1" parent="0" />
        <mxCell id="nFB4tpNnGNIT1_HhN5Ei-107" value="" style="rounded=1;whiteSpace=wrap;html=1;" parent="1" vertex="1">
          <mxGeometry x="-370" y="1570" width="700" height="540" as="geometry" />
        </mxCell>
        <mxCell id="nFB4tpNnGNIT1_HhN5Ei-110" value="" style="rounded=1;whiteSpace=wrap;html=1;" parent="1" vertex="1">
          <mxGeometry x="530" y="1310" width="420" height="520" as="geometry" />
        </mxCell>
        <mxCell id="nFB4tpNnGNIT1_HhN5Ei-111" value="" style="rounded=1;whiteSpace=wrap;html=1;" parent="1" vertex="1">
          <mxGeometry x="-5" y="350" width="910" height="840" as="geometry" />
        </mxCell>
        <mxCell id="nFB4tpNnGNIT1_HhN5Ei-112" value="" style="rounded=1;whiteSpace=wrap;html=1;" parent="1" vertex="1">
          <mxGeometry x="1320" y="370" width="780" height="860" as="geometry" />
        </mxCell>
        <mxCell id="nFB4tpNnGNIT1_HhN5Ei-113" style="edgeStyle=orthogonalEdgeStyle;rounded=0;orthogonalLoop=1;jettySize=auto;html=1;exitX=0.5;exitY=1;exitDx=0;exitDy=0;exitPerimeter=0;" parent="1" source="nFB4tpNnGNIT1_HhN5Ei-166" target="nFB4tpNnGNIT1_HhN5Ei-147" edge="1">
          <mxGeometry relative="1" as="geometry" />
        </mxCell>
        <mxCell id="nFB4tpNnGNIT1_HhN5Ei-114" value="[REST]" style="edgeLabel;html=1;align=center;verticalAlign=middle;resizable=0;points=[];" parent="nFB4tpNnGNIT1_HhN5Ei-113" connectable="0" vertex="1">
          <mxGeometry x="-0.087" relative="1" as="geometry">
            <mxPoint as="offset" />
          </mxGeometry>
        </mxCell>
        <object placeholders="1" c4Name="crm-db" c4Type="Container" c4Technology="MSSQL" c4Description="База данных системы CRM" label="&lt;font style=&quot;font-size: 16px&quot;&gt;&lt;b&gt;%c4Name%&lt;/b&gt;&lt;/font&gt;&lt;div&gt;[%c4Type%:&amp;nbsp;%c4Technology%]&lt;/div&gt;&lt;br&gt;&lt;div&gt;&lt;font style=&quot;font-size: 11px&quot;&gt;&lt;font color=&quot;#E6E6E6&quot;&gt;%c4Description%&lt;/font&gt;&lt;/div&gt;" id="nFB4tpNnGNIT1_HhN5Ei-115">
          <mxCell style="shape=cylinder3;size=15;whiteSpace=wrap;html=1;boundedLbl=1;rounded=0;labelBackgroundColor=none;fillColor=#23A2D9;fontSize=12;fontColor=#ffffff;align=center;strokeColor=#0E7DAD;metaEdit=1;points=[[0.5,0,0],[1,0.25,0],[1,0.5,0],[1,0.75,0],[0.5,1,0],[0,0.75,0],[0,0.5,0],[0,0.25,0]];resizable=0;" parent="1" vertex="1">
            <mxGeometry x="330" y="1040" width="240" height="120" as="geometry" />
          </mxCell>
        </object>
        <mxCell id="nFB4tpNnGNIT1_HhN5Ei-116" style="edgeStyle=orthogonalEdgeStyle;rounded=0;orthogonalLoop=1;jettySize=auto;html=1;exitX=0;exitY=0.75;exitDx=0;exitDy=0;exitPerimeter=0;entryX=0.5;entryY=0;entryDx=0;entryDy=0;entryPerimeter=0;" parent="1" source="nFB4tpNnGNIT1_HhN5Ei-118" target="nFB4tpNnGNIT1_HhN5Ei-168" edge="1">
          <mxGeometry relative="1" as="geometry">
            <Array as="points">
              <mxPoint x="-200" y="970" />
            </Array>
          </mxGeometry>
        </mxCell>
        <mxCell id="nFB4tpNnGNIT1_HhN5Ei-117" value="Аутентификация&amp;nbsp;&lt;div&gt;менеджеров&lt;/div&gt;" style="edgeLabel;html=1;align=center;verticalAlign=middle;resizable=0;points=[];" parent="nFB4tpNnGNIT1_HhN5Ei-116" connectable="0" vertex="1">
          <mxGeometry x="0.233" y="-1" relative="1" as="geometry">
            <mxPoint as="offset" />
          </mxGeometry>
        </mxCell>
        <object placeholders="1" c4Name="client-crm-app" c4Type="Container" c4Technology="e.g. SpringBoot, ElasticSearch,Container: Dynamics CRM" c4Description="Система управления клиентскими данными" label="&lt;font style=&quot;font-size: 16px&quot;&gt;&lt;b&gt;%c4Name%&lt;/b&gt;&lt;/font&gt;&lt;div&gt;[%c4Type%: %c4Technology%]&lt;/div&gt;&lt;br&gt;&lt;div&gt;&lt;font style=&quot;font-size: 11px&quot;&gt;&lt;font color=&quot;#E6E6E6&quot;&gt;%c4Description%&lt;/font&gt;&lt;/div&gt;" id="nFB4tpNnGNIT1_HhN5Ei-118">
          <mxCell style="rounded=1;whiteSpace=wrap;html=1;fontSize=11;labelBackgroundColor=none;fillColor=#23A2D9;fontColor=#ffffff;align=center;arcSize=10;strokeColor=#0E7DAD;metaEdit=1;resizable=0;points=[[0.25,0,0],[0.5,0,0],[0.75,0,0],[1,0.25,0],[1,0.5,0],[1,0.75,0],[0.75,1,0],[0.5,1,0],[0.25,1,0],[0,0.75,0],[0,0.5,0],[0,0.25,0]];" parent="1" vertex="1">
            <mxGeometry x="330" y="880" width="240" height="120" as="geometry" />
          </mxCell>
        </object>
        <mxCell id="nFB4tpNnGNIT1_HhN5Ei-119" style="edgeStyle=orthogonalEdgeStyle;rounded=0;orthogonalLoop=1;jettySize=auto;html=1;exitX=0;exitY=0.75;exitDx=0;exitDy=0;exitPerimeter=0;" parent="1" source="nFB4tpNnGNIT1_HhN5Ei-121" target="nFB4tpNnGNIT1_HhN5Ei-168" edge="1">
          <mxGeometry relative="1" as="geometry">
            <Array as="points">
              <mxPoint x="1500" y="770" />
              <mxPoint x="1500" y="960" />
              <mxPoint x="1170" y="960" />
              <mxPoint x="1170" y="1180" />
              <mxPoint x="-200" y="1180" />
            </Array>
          </mxGeometry>
        </mxCell>
        <mxCell id="nFB4tpNnGNIT1_HhN5Ei-120" value="Аутентификация&amp;nbsp;&lt;div&gt;менеджеров&lt;/div&gt;" style="edgeLabel;html=1;align=center;verticalAlign=middle;resizable=0;points=[];" parent="nFB4tpNnGNIT1_HhN5Ei-119" connectable="0" vertex="1">
          <mxGeometry x="0.3218" y="6" relative="1" as="geometry">
            <mxPoint as="offset" />
          </mxGeometry>
        </mxCell>
        <object placeholders="1" c4Name="CRM" c4Type="Container" c4Technology="Container: Kotlin, Spring Boot" c4Description="Система управления данными собственников" label="&lt;font style=&quot;font-size: 16px&quot;&gt;&lt;b&gt;%c4Name%&lt;/b&gt;&lt;/font&gt;&lt;div&gt;[%c4Type%: %c4Technology%]&lt;/div&gt;&lt;br&gt;&lt;div&gt;&lt;font style=&quot;font-size: 11px&quot;&gt;&lt;font color=&quot;#E6E6E6&quot;&gt;%c4Description%&lt;/font&gt;&lt;/div&gt;" id="nFB4tpNnGNIT1_HhN5Ei-121">
          <mxCell style="rounded=1;whiteSpace=wrap;html=1;fontSize=11;labelBackgroundColor=none;fillColor=#23A2D9;fontColor=#ffffff;align=center;arcSize=10;strokeColor=#0E7DAD;metaEdit=1;resizable=0;points=[[0.25,0,0],[0.5,0,0],[0.75,0,0],[1,0.25,0],[1,0.5,0],[1,0.75,0],[0.75,1,0],[0.5,1,0],[0.25,1,0],[0,0.75,0],[0,0.5,0],[0,0.25,0]];" parent="1" vertex="1">
            <mxGeometry x="1770" y="680" width="240" height="120" as="geometry" />
          </mxCell>
        </object>
        <object placeholders="1" c4Name="crm-tenant-db" c4Type="Container" c4Technology="PostgreSQL" c4Description="База данных CRM по собственникам" label="&lt;font style=&quot;font-size: 16px&quot;&gt;&lt;b&gt;%c4Name%&lt;/b&gt;&lt;/font&gt;&lt;div&gt;[%c4Type%:&amp;nbsp;%c4Technology%]&lt;/div&gt;&lt;br&gt;&lt;div&gt;&lt;font style=&quot;font-size: 11px&quot;&gt;&lt;font color=&quot;#E6E6E6&quot;&gt;%c4Description%&lt;/font&gt;&lt;/div&gt;" id="nFB4tpNnGNIT1_HhN5Ei-122">
          <mxCell style="shape=cylinder3;size=15;whiteSpace=wrap;html=1;boundedLbl=1;rounded=0;labelBackgroundColor=none;fillColor=#23A2D9;fontSize=12;fontColor=#ffffff;align=center;strokeColor=#0E7DAD;metaEdit=1;points=[[0.5,0,0],[1,0.25,0],[1,0.5,0],[1,0.75,0],[0.5,1,0],[0,0.75,0],[0,0.5,0],[0,0.25,0]];resizable=0;" parent="1" vertex="1">
            <mxGeometry x="1769" y="860" width="240" height="120" as="geometry" />
          </mxCell>
        </object>
        <mxCell id="nFB4tpNnGNIT1_HhN5Ei-123" style="edgeStyle=orthogonalEdgeStyle;rounded=0;orthogonalLoop=1;jettySize=auto;html=1;entryX=0.5;entryY=0;entryDx=0;entryDy=0;entryPerimeter=0;" parent="1" source="nFB4tpNnGNIT1_HhN5Ei-118" target="nFB4tpNnGNIT1_HhN5Ei-115" edge="1">
          <mxGeometry relative="1" as="geometry" />
        </mxCell>
        <mxCell id="nFB4tpNnGNIT1_HhN5Ei-124" value="[JDBC]" style="edgeLabel;html=1;align=center;verticalAlign=middle;resizable=0;points=[];" parent="nFB4tpNnGNIT1_HhN5Ei-123" connectable="0" vertex="1">
          <mxGeometry x="-0.2713" relative="1" as="geometry">
            <mxPoint as="offset" />
          </mxGeometry>
        </mxCell>
        <mxCell id="nFB4tpNnGNIT1_HhN5Ei-125" style="edgeStyle=orthogonalEdgeStyle;rounded=0;orthogonalLoop=1;jettySize=auto;html=1;entryX=0.5;entryY=0;entryDx=0;entryDy=0;entryPerimeter=0;" parent="1" source="nFB4tpNnGNIT1_HhN5Ei-121" target="nFB4tpNnGNIT1_HhN5Ei-122" edge="1">
          <mxGeometry relative="1" as="geometry" />
        </mxCell>
        <mxCell id="nFB4tpNnGNIT1_HhN5Ei-126" value="&lt;div&gt;[JDBC]&lt;/div&gt;" style="edgeLabel;html=1;align=center;verticalAlign=middle;resizable=0;points=[];" parent="nFB4tpNnGNIT1_HhN5Ei-125" connectable="0" vertex="1">
          <mxGeometry x="-0.0327" y="1" relative="1" as="geometry">
            <mxPoint as="offset" />
          </mxGeometry>
        </mxCell>
        <mxCell id="nFB4tpNnGNIT1_HhN5Ei-127" style="edgeStyle=orthogonalEdgeStyle;rounded=0;orthogonalLoop=1;jettySize=auto;html=1;entryX=0;entryY=0.25;entryDx=0;entryDy=0;entryPerimeter=0;exitX=0.366;exitY=0.981;exitDx=0;exitDy=0;exitPerimeter=0;" parent="1" source="nFB4tpNnGNIT1_HhN5Ei-166" target="nFB4tpNnGNIT1_HhN5Ei-118" edge="1">
          <mxGeometry relative="1" as="geometry">
            <Array as="points">
              <mxPoint x="418" y="540" />
              <mxPoint x="300" y="540" />
              <mxPoint x="300" y="910" />
            </Array>
            <mxPoint x="300" y="650" as="sourcePoint" />
            <mxPoint x="300" y="950" as="targetPoint" />
          </mxGeometry>
        </mxCell>
        <mxCell id="nFB4tpNnGNIT1_HhN5Ei-128" value="&lt;div&gt;Регистрация клиента&lt;/div&gt;Карточка клиента&lt;div&gt;Профиль клиента&lt;/div&gt;&lt;div&gt;[REST]&lt;/div&gt;" style="edgeLabel;html=1;align=center;verticalAlign=middle;resizable=0;points=[];" parent="nFB4tpNnGNIT1_HhN5Ei-127" connectable="0" vertex="1">
          <mxGeometry x="0.5831" y="1" relative="1" as="geometry">
            <mxPoint x="9" y="28" as="offset" />
          </mxGeometry>
        </mxCell>
        <mxCell id="nFB4tpNnGNIT1_HhN5Ei-129" style="edgeStyle=orthogonalEdgeStyle;rounded=0;orthogonalLoop=1;jettySize=auto;html=1;exitX=0.5;exitY=1;exitDx=0;exitDy=0;exitPerimeter=0;" parent="1" source="nFB4tpNnGNIT1_HhN5Ei-181" target="nFB4tpNnGNIT1_HhN5Ei-132" edge="1">
          <mxGeometry relative="1" as="geometry">
            <mxPoint x="1299.9200000000005" y="489.9999999999998" as="sourcePoint" />
          </mxGeometry>
        </mxCell>
        <mxCell id="nFB4tpNnGNIT1_HhN5Ei-130" value="[REST, WS]" style="edgeLabel;html=1;align=center;verticalAlign=middle;resizable=0;points=[];" parent="nFB4tpNnGNIT1_HhN5Ei-129" connectable="0" vertex="1">
          <mxGeometry x="-0.2095" y="1" relative="1" as="geometry">
            <mxPoint as="offset" />
          </mxGeometry>
        </mxCell>
        <mxCell id="nFB4tpNnGNIT1_HhN5Ei-131" style="edgeStyle=orthogonalEdgeStyle;rounded=0;orthogonalLoop=1;jettySize=auto;html=1;" parent="1" source="nFB4tpNnGNIT1_HhN5Ei-132" target="nFB4tpNnGNIT1_HhN5Ei-203" edge="1">
          <mxGeometry relative="1" as="geometry">
            <Array as="points">
              <mxPoint x="2000" y="640" />
              <mxPoint x="2000" y="535" />
            </Array>
          </mxGeometry>
        </mxCell>
        <object placeholders="1" c4Name="tenant-core-app" c4Type="Container" c4Technology="Container: Kotlin, SpringBoot" c4Description="Приложение для предоставления услуг собственникам" label="&lt;font style=&quot;font-size: 16px&quot;&gt;&lt;b&gt;%c4Name%&lt;/b&gt;&lt;/font&gt;&lt;div&gt;[%c4Type%: %c4Technology%]&lt;/div&gt;&lt;br&gt;&lt;div&gt;&lt;font style=&quot;font-size: 11px&quot;&gt;&lt;font color=&quot;#E6E6E6&quot;&gt;%c4Description%&lt;/font&gt;&lt;/div&gt;" id="nFB4tpNnGNIT1_HhN5Ei-132">
          <mxCell style="rounded=1;whiteSpace=wrap;html=1;fontSize=11;labelBackgroundColor=none;fillColor=#23A2D9;fontColor=#ffffff;align=center;arcSize=10;strokeColor=#0E7DAD;metaEdit=1;resizable=0;points=[[0.25,0,0],[0.5,0,0],[0.75,0,0],[1,0.25,0],[1,0.5,0],[1,0.75,0],[0.75,1,0],[0.5,1,0],[0.25,1,0],[0,0.75,0],[0,0.5,0],[0,0.25,0]];" parent="1" vertex="1">
            <mxGeometry x="1330" y="580" width="240" height="120" as="geometry" />
          </mxCell>
        </object>
        <object placeholders="1" c4Name="Платёжная система" c4Type="Software System" c4Description="Провайдер онлайн-платежей" label="&lt;font style=&quot;font-size: 16px&quot;&gt;&lt;b&gt;%c4Name%&lt;/b&gt;&lt;/font&gt;&lt;div&gt;[%c4Type%]&lt;/div&gt;&lt;br&gt;&lt;div&gt;&lt;font style=&quot;font-size: 11px&quot;&gt;&lt;font color=&quot;#cccccc&quot;&gt;%c4Description%&lt;/font&gt;&lt;/div&gt;" id="nFB4tpNnGNIT1_HhN5Ei-134">
          <mxCell style="rounded=1;whiteSpace=wrap;html=1;labelBackgroundColor=none;fillColor=#8C8496;fontColor=#ffffff;align=center;arcSize=10;strokeColor=#736782;metaEdit=1;resizable=0;points=[[0.25,0,0],[0.5,0,0],[0.75,0,0],[1,0.25,0],[1,0.5,0],[1,0.75,0],[0.75,1,0],[0.5,1,0],[0.25,1,0],[0,0.75,0],[0,0.5,0],[0,0.25,0]];" parent="1" vertex="1">
            <mxGeometry x="2690" y="602.5" width="240" height="120" as="geometry" />
          </mxCell>
        </object>
        <mxCell id="nFB4tpNnGNIT1_HhN5Ei-135" style="edgeStyle=orthogonalEdgeStyle;rounded=0;orthogonalLoop=1;jettySize=auto;html=1;entryX=0;entryY=0.5;entryDx=0;entryDy=0;entryPerimeter=0;exitX=1;exitY=0.5;exitDx=0;exitDy=0;exitPerimeter=0;" parent="1" source="nFB4tpNnGNIT1_HhN5Ei-132" target="nFB4tpNnGNIT1_HhN5Ei-134" edge="1">
          <mxGeometry relative="1" as="geometry">
            <Array as="points">
              <mxPoint x="2000" y="640" />
              <mxPoint x="2000" y="680" />
            </Array>
            <mxPoint x="1080" y="624.9999999999998" as="sourcePoint" />
            <mxPoint x="1720" y="664.9999999999998" as="targetPoint" />
          </mxGeometry>
        </mxCell>
        <mxCell id="nFB4tpNnGNIT1_HhN5Ei-136" style="edgeStyle=orthogonalEdgeStyle;rounded=0;orthogonalLoop=1;jettySize=auto;html=1;exitX=1;exitY=0.5;exitDx=0;exitDy=0;exitPerimeter=0;" parent="1" source="nFB4tpNnGNIT1_HhN5Ei-132" edge="1">
          <mxGeometry relative="1" as="geometry">
            <Array as="points">
              <mxPoint x="1660" y="640" />
              <mxPoint x="1660" y="770" />
            </Array>
            <mxPoint x="1770" y="770" as="targetPoint" />
          </mxGeometry>
        </mxCell>
        <mxCell id="nFB4tpNnGNIT1_HhN5Ei-137" value="Получение клиентских данных&lt;div&gt;[REST]&lt;/div&gt;" style="edgeLabel;html=1;align=center;verticalAlign=middle;resizable=0;points=[];" parent="nFB4tpNnGNIT1_HhN5Ei-136" connectable="0" vertex="1">
          <mxGeometry x="-0.3216" y="2" relative="1" as="geometry">
            <mxPoint x="13" y="48" as="offset" />
          </mxGeometry>
        </mxCell>
        <object placeholders="1" c4Name="tenant-core-db" c4Type="Container" c4Technology="PostgreSQL" c4Description="База данных услуг ЖКХ по собственникам" label="&lt;font style=&quot;font-size: 16px&quot;&gt;&lt;b&gt;%c4Name%&lt;/b&gt;&lt;/font&gt;&lt;div&gt;[%c4Type%:&amp;nbsp;%c4Technology%]&lt;/div&gt;&lt;br&gt;&lt;div&gt;&lt;font style=&quot;font-size: 11px&quot;&gt;&lt;font color=&quot;#E6E6E6&quot;&gt;%c4Description%&lt;/font&gt;&lt;/div&gt;" id="nFB4tpNnGNIT1_HhN5Ei-138">
          <mxCell style="shape=cylinder3;size=15;whiteSpace=wrap;html=1;boundedLbl=1;rounded=0;labelBackgroundColor=none;fillColor=#23A2D9;fontSize=12;fontColor=#ffffff;align=center;strokeColor=#0E7DAD;metaEdit=1;points=[[0.5,0,0],[1,0.25,0],[1,0.5,0],[1,0.75,0],[0.5,1,0],[0,0.75,0],[0,0.5,0],[0,0.25,0]];resizable=0;" parent="1" vertex="1">
            <mxGeometry x="1330" y="740" width="240" height="120" as="geometry" />
          </mxCell>
        </object>
        <mxCell id="nFB4tpNnGNIT1_HhN5Ei-139" style="edgeStyle=orthogonalEdgeStyle;rounded=0;orthogonalLoop=1;jettySize=auto;html=1;entryX=0.5;entryY=0;entryDx=0;entryDy=0;entryPerimeter=0;" parent="1" source="nFB4tpNnGNIT1_HhN5Ei-132" target="nFB4tpNnGNIT1_HhN5Ei-138" edge="1">
          <mxGeometry relative="1" as="geometry" />
        </mxCell>
        <mxCell id="nFB4tpNnGNIT1_HhN5Ei-140" value="[JDBC]" style="edgeLabel;html=1;align=center;verticalAlign=middle;resizable=0;points=[];" parent="nFB4tpNnGNIT1_HhN5Ei-139" connectable="0" vertex="1">
          <mxGeometry x="-0.3556" y="-2" relative="1" as="geometry">
            <mxPoint as="offset" />
          </mxGeometry>
        </mxCell>
        <object placeholders="1" c4Name="Хранилище данных" c4Type="Container" c4Technology="Greenplum" c4Description="Единое хранилище данных для всех систем компании" label="&lt;font style=&quot;font-size: 16px&quot;&gt;&lt;b&gt;%c4Name%&lt;/b&gt;&lt;/font&gt;&lt;div&gt;[%c4Type%: %c4Technology%]&lt;/div&gt;&lt;br&gt;&lt;div&gt;&lt;font style=&quot;font-size: 11px&quot;&gt;&lt;font color=&quot;#E6E6E6&quot;&gt;%c4Description%&lt;/font&gt;&lt;/div&gt;" id="nFB4tpNnGNIT1_HhN5Ei-141">
          <mxCell style="rounded=1;whiteSpace=wrap;html=1;fontSize=11;labelBackgroundColor=none;fillColor=#23A2D9;fontColor=#ffffff;align=center;arcSize=10;strokeColor=#0E7DAD;metaEdit=1;resizable=0;points=[[0.25,0,0],[0.5,0,0],[0.75,0,0],[1,0.25,0],[1,0.5,0],[1,0.75,0],[0.75,1,0],[0.5,1,0],[0.25,1,0],[0,0.75,0],[0,0.5,0],[0,0.25,0]];" parent="1" vertex="1">
            <mxGeometry x="605" y="1380" width="240" height="120" as="geometry" />
          </mxCell>
        </object>
        <object placeholders="1" c4Name="DWH Хранилище" c4Type="Container" c4Technology="S3" c4Description="Физическое хранилище данных DWH" label="&lt;font style=&quot;font-size: 16px&quot;&gt;&lt;b&gt;%c4Name%&lt;/b&gt;&lt;/font&gt;&lt;div&gt;[%c4Type%:&amp;nbsp;%c4Technology%]&lt;/div&gt;&lt;br&gt;&lt;div&gt;&lt;font style=&quot;font-size: 11px&quot;&gt;&lt;font color=&quot;#E6E6E6&quot;&gt;%c4Description%&lt;/font&gt;&lt;/div&gt;" id="nFB4tpNnGNIT1_HhN5Ei-142">
          <mxCell style="shape=cylinder3;size=15;whiteSpace=wrap;html=1;boundedLbl=1;rounded=0;labelBackgroundColor=none;fillColor=#23A2D9;fontSize=12;fontColor=#ffffff;align=center;strokeColor=#0E7DAD;metaEdit=1;points=[[0.5,0,0],[1,0.25,0],[1,0.5,0],[1,0.75,0],[0.5,1,0],[0,0.75,0],[0,0.5,0],[0,0.25,0]];resizable=0;" parent="1" vertex="1">
            <mxGeometry x="605" y="1610" width="240" height="120" as="geometry" />
          </mxCell>
        </object>
        <mxCell id="nFB4tpNnGNIT1_HhN5Ei-143" style="edgeStyle=orthogonalEdgeStyle;rounded=0;orthogonalLoop=1;jettySize=auto;html=1;exitX=0.25;exitY=1;exitDx=0;exitDy=0;exitPerimeter=0;entryX=0.5;entryY=0;entryDx=0;entryDy=0;entryPerimeter=0;" parent="1" source="nFB4tpNnGNIT1_HhN5Ei-166" target="nFB4tpNnGNIT1_HhN5Ei-149" edge="1">
          <mxGeometry relative="1" as="geometry">
            <Array as="points">
              <mxPoint x="390" y="510" />
              <mxPoint x="130" y="510" />
            </Array>
          </mxGeometry>
        </mxCell>
        <mxCell id="nFB4tpNnGNIT1_HhN5Ei-144" value="Получить данные по объектам&lt;div&gt;недвижимости&lt;/div&gt;&lt;div&gt;[REST]&lt;/div&gt;" style="edgeLabel;html=1;align=center;verticalAlign=middle;resizable=0;points=[];" parent="nFB4tpNnGNIT1_HhN5Ei-143" connectable="0" vertex="1">
          <mxGeometry x="-0.2933" y="2" relative="1" as="geometry">
            <mxPoint x="-70" y="-2" as="offset" />
          </mxGeometry>
        </mxCell>
        <mxCell id="nFB4tpNnGNIT1_HhN5Ei-145" style="edgeStyle=orthogonalEdgeStyle;rounded=0;orthogonalLoop=1;jettySize=auto;html=1;" parent="1" source="nFB4tpNnGNIT1_HhN5Ei-147" target="nFB4tpNnGNIT1_HhN5Ei-148" edge="1">
          <mxGeometry relative="1" as="geometry" />
        </mxCell>
        <mxCell id="nFB4tpNnGNIT1_HhN5Ei-146" value="[JDBC]" style="edgeLabel;html=1;align=center;verticalAlign=middle;resizable=0;points=[];" parent="nFB4tpNnGNIT1_HhN5Ei-145" connectable="0" vertex="1">
          <mxGeometry x="0.2629" y="4" relative="1" as="geometry">
            <mxPoint as="offset" />
          </mxGeometry>
        </mxCell>
        <object placeholders="1" c4Name="client-mart-app" c4Type="Container" c4Technology="Container: Kotlin, SpringBoot" c4Description="Приложение для:&#xa;- предоставления информации об объектах недвижимости,&#xa;- проведения онлайн-сделок" label="&lt;font style=&quot;font-size: 16px&quot;&gt;&lt;b&gt;%c4Name%&lt;/b&gt;&lt;/font&gt;&lt;div&gt;[%c4Type%: %c4Technology%]&lt;/div&gt;&lt;br&gt;&lt;div&gt;&lt;font style=&quot;font-size: 11px&quot;&gt;&lt;font color=&quot;#E6E6E6&quot;&gt;%c4Description%&lt;/font&gt;&lt;/div&gt;" id="nFB4tpNnGNIT1_HhN5Ei-147">
          <mxCell style="rounded=1;whiteSpace=wrap;html=1;fontSize=11;labelBackgroundColor=none;fillColor=#23A2D9;fontColor=#ffffff;align=center;arcSize=10;strokeColor=#0E7DAD;metaEdit=1;resizable=0;points=[[0.25,0,0],[0.5,0,0],[0.75,0,0],[1,0.25,0],[1,0.5,0],[1,0.75,0],[0.75,1,0],[0.5,1,0],[0.25,1,0],[0,0.75,0],[0,0.5,0],[0,0.25,0]];" parent="1" vertex="1">
            <mxGeometry x="330" y="550" width="240" height="120" as="geometry" />
          </mxCell>
        </object>
        <object placeholders="1" c4Name="client-mart-db" c4Type="Container" c4Technology="PostgreSQL" c4Description="База данных для хранения информации об объектах недвижимости и сделкам по ним" label="&lt;font style=&quot;font-size: 14px&quot;&gt;&lt;b&gt;%c4Name%&lt;/b&gt;&lt;/font&gt;&lt;div&gt;[%c4Type%:&amp;nbsp;%c4Technology%]&lt;/div&gt;&lt;br&gt;&lt;div&gt;&lt;font style=&quot;font-size: 11px&quot;&gt;&lt;font color=&quot;#E6E6E6&quot;&gt;%c4Description%&lt;/font&gt;&lt;/div&gt;" id="nFB4tpNnGNIT1_HhN5Ei-148">
          <mxCell style="shape=cylinder3;size=15;whiteSpace=wrap;html=1;boundedLbl=1;rounded=0;labelBackgroundColor=none;fillColor=#23A2D9;fontSize=12;fontColor=#ffffff;align=center;strokeColor=#0E7DAD;metaEdit=1;points=[[0.5,0,0],[1,0.25,0],[1,0.5,0],[1,0.75,0],[0.5,1,0],[0,0.75,0],[0,0.5,0],[0,0.25,0]];resizable=0;" parent="1" vertex="1">
            <mxGeometry x="330" y="700" width="240" height="120" as="geometry" />
          </mxCell>
        </object>
        <object placeholders="1" c4Name="client-mart-estate-app" c4Type="Container" c4Technology="Container: Kotlin, SpringBoot" c4Description="Приложение для управления информацией об объектах недвижимости" label="&lt;font style=&quot;font-size: 16px&quot;&gt;&lt;b&gt;%c4Name%&lt;/b&gt;&lt;/font&gt;&lt;div&gt;[%c4Type%: %c4Technology%]&lt;/div&gt;&lt;br&gt;&lt;div&gt;&lt;font style=&quot;font-size: 11px&quot;&gt;&lt;font color=&quot;#E6E6E6&quot;&gt;%c4Description%&lt;/font&gt;&lt;/div&gt;" id="nFB4tpNnGNIT1_HhN5Ei-149">
          <mxCell style="rounded=1;whiteSpace=wrap;html=1;fontSize=11;labelBackgroundColor=none;fillColor=#23A2D9;fontColor=#ffffff;align=center;arcSize=10;strokeColor=#0E7DAD;metaEdit=1;resizable=0;points=[[0.25,0,0],[0.5,0,0],[0.75,0,0],[1,0.25,0],[1,0.5,0],[1,0.75,0],[0.75,1,0],[0.5,1,0],[0.25,1,0],[0,0.75,0],[0,0.5,0],[0,0.25,0]];" parent="1" vertex="1">
            <mxGeometry x="10" y="550" width="240" height="120" as="geometry" />
          </mxCell>
        </object>
        <mxCell id="nFB4tpNnGNIT1_HhN5Ei-150" style="edgeStyle=orthogonalEdgeStyle;rounded=0;orthogonalLoop=1;jettySize=auto;html=1;entryX=0;entryY=0.75;entryDx=0;entryDy=0;entryPerimeter=0;exitX=0.5;exitY=1;exitDx=0;exitDy=0;exitPerimeter=0;" parent="1" source="nFB4tpNnGNIT1_HhN5Ei-152" target="nFB4tpNnGNIT1_HhN5Ei-141" edge="1">
          <mxGeometry relative="1" as="geometry">
            <Array as="points">
              <mxPoint x="130" y="1470" />
            </Array>
          </mxGeometry>
        </mxCell>
        <mxCell id="nFB4tpNnGNIT1_HhN5Ei-151" value="&lt;div&gt;Передача сырых данных&lt;/div&gt;[CDC]" style="edgeLabel;html=1;align=center;verticalAlign=middle;resizable=0;points=[];" parent="nFB4tpNnGNIT1_HhN5Ei-150" connectable="0" vertex="1">
          <mxGeometry x="-0.6156" y="2" relative="1" as="geometry">
            <mxPoint y="-49" as="offset" />
          </mxGeometry>
        </mxCell>
        <object placeholders="1" c4Name="client-mart-estate-db" c4Type="Container" c4Technology="PostgreSQL" c4Description="База данных объектов недвижимости" label="&lt;font style=&quot;font-size: 16px&quot;&gt;&lt;b&gt;%c4Name%&lt;/b&gt;&lt;/font&gt;&lt;div&gt;[%c4Type%:&amp;nbsp;%c4Technology%]&lt;/div&gt;&lt;br&gt;&lt;div&gt;&lt;font style=&quot;font-size: 11px&quot;&gt;&lt;font color=&quot;#E6E6E6&quot;&gt;%c4Description%&lt;/font&gt;&lt;/div&gt;" id="nFB4tpNnGNIT1_HhN5Ei-152">
          <mxCell style="shape=cylinder3;size=15;whiteSpace=wrap;html=1;boundedLbl=1;rounded=0;labelBackgroundColor=none;fillColor=#23A2D9;fontSize=12;fontColor=#ffffff;align=center;strokeColor=#0E7DAD;metaEdit=1;points=[[0.5,0,0],[1,0.25,0],[1,0.5,0],[1,0.75,0],[0.5,1,0],[0,0.75,0],[0,0.5,0],[0,0.25,0]];resizable=0;" parent="1" vertex="1">
            <mxGeometry x="10" y="750" width="240" height="120" as="geometry" />
          </mxCell>
        </object>
        <mxCell id="nFB4tpNnGNIT1_HhN5Ei-153" style="edgeStyle=orthogonalEdgeStyle;rounded=0;orthogonalLoop=1;jettySize=auto;html=1;entryX=0.5;entryY=0;entryDx=0;entryDy=0;entryPerimeter=0;" parent="1" source="nFB4tpNnGNIT1_HhN5Ei-149" target="nFB4tpNnGNIT1_HhN5Ei-152" edge="1">
          <mxGeometry relative="1" as="geometry" />
        </mxCell>
        <mxCell id="nFB4tpNnGNIT1_HhN5Ei-154" value="[JDBC]" style="edgeLabel;html=1;align=center;verticalAlign=middle;resizable=0;points=[];" parent="nFB4tpNnGNIT1_HhN5Ei-153" connectable="0" vertex="1">
          <mxGeometry x="-0.3867" y="1" relative="1" as="geometry">
            <mxPoint as="offset" />
          </mxGeometry>
        </mxCell>
        <mxCell id="nFB4tpNnGNIT1_HhN5Ei-155" style="edgeStyle=orthogonalEdgeStyle;rounded=0;orthogonalLoop=1;jettySize=auto;html=1;entryX=0;entryY=0.75;entryDx=0;entryDy=0;entryPerimeter=0;exitX=0.5;exitY=1;exitDx=0;exitDy=0;exitPerimeter=0;" parent="1" source="nFB4tpNnGNIT1_HhN5Ei-115" target="nFB4tpNnGNIT1_HhN5Ei-141" edge="1">
          <mxGeometry relative="1" as="geometry">
            <Array as="points">
              <mxPoint x="450" y="1470" />
            </Array>
          </mxGeometry>
        </mxCell>
        <mxCell id="nFB4tpNnGNIT1_HhN5Ei-156" value="&lt;div&gt;Передача сырых данных&lt;/div&gt;[CDC]" style="edgeLabel;html=1;align=center;verticalAlign=middle;resizable=0;points=[];" parent="nFB4tpNnGNIT1_HhN5Ei-155" connectable="0" vertex="1">
          <mxGeometry x="-0.4022" y="-8" relative="1" as="geometry">
            <mxPoint y="1" as="offset" />
          </mxGeometry>
        </mxCell>
        <mxCell id="nFB4tpNnGNIT1_HhN5Ei-157" style="edgeStyle=orthogonalEdgeStyle;rounded=0;orthogonalLoop=1;jettySize=auto;html=1;entryX=0;entryY=0.5;entryDx=0;entryDy=0;entryPerimeter=0;exitX=1;exitY=0.5;exitDx=0;exitDy=0;exitPerimeter=0;" parent="1" source="nFB4tpNnGNIT1_HhN5Ei-148" target="nFB4tpNnGNIT1_HhN5Ei-141" edge="1">
          <mxGeometry relative="1" as="geometry">
            <mxPoint x="550" y="830" as="sourcePoint" />
            <mxPoint x="705" y="1470" as="targetPoint" />
            <Array as="points">
              <mxPoint x="590" y="760" />
              <mxPoint x="590" y="1440" />
            </Array>
          </mxGeometry>
        </mxCell>
        <mxCell id="nFB4tpNnGNIT1_HhN5Ei-158" value="&lt;div&gt;Передача сырых данных&lt;/div&gt;[CDC]" style="edgeLabel;html=1;align=center;verticalAlign=middle;resizable=0;points=[];" parent="nFB4tpNnGNIT1_HhN5Ei-157" connectable="0" vertex="1">
          <mxGeometry x="0.4614" y="4" relative="1" as="geometry">
            <mxPoint x="-54" y="-422" as="offset" />
          </mxGeometry>
        </mxCell>
        <mxCell id="nFB4tpNnGNIT1_HhN5Ei-159" style="edgeStyle=orthogonalEdgeStyle;rounded=0;orthogonalLoop=1;jettySize=auto;html=1;exitX=0.5;exitY=1;exitDx=0;exitDy=0;exitPerimeter=0;" parent="1" source="nFB4tpNnGNIT1_HhN5Ei-138" edge="1">
          <mxGeometry relative="1" as="geometry">
            <Array as="points">
              <mxPoint x="1290" y="910" />
              <mxPoint x="1110" y="910" />
              <mxPoint x="1110" y="1420" />
            </Array>
            <mxPoint x="845" y="1420" as="targetPoint" />
          </mxGeometry>
        </mxCell>
        <mxCell id="nFB4tpNnGNIT1_HhN5Ei-160" value="&lt;div&gt;Передача сырых данных&lt;/div&gt;[CDC]" style="edgeLabel;html=1;align=center;verticalAlign=middle;resizable=0;points=[];" parent="nFB4tpNnGNIT1_HhN5Ei-159" connectable="0" vertex="1">
          <mxGeometry x="0.1919" y="-2" relative="1" as="geometry">
            <mxPoint y="-1" as="offset" />
          </mxGeometry>
        </mxCell>
        <mxCell id="nFB4tpNnGNIT1_HhN5Ei-161" style="edgeStyle=orthogonalEdgeStyle;rounded=0;orthogonalLoop=1;jettySize=auto;html=1;entryX=1;entryY=0.5;entryDx=0;entryDy=0;entryPerimeter=0;" parent="1" source="nFB4tpNnGNIT1_HhN5Ei-122" target="nFB4tpNnGNIT1_HhN5Ei-141" edge="1">
          <mxGeometry relative="1" as="geometry">
            <Array as="points">
              <mxPoint x="1730" y="1020" />
              <mxPoint x="1227" y="1020" />
              <mxPoint x="1227" y="1440" />
            </Array>
          </mxGeometry>
        </mxCell>
        <mxCell id="nFB4tpNnGNIT1_HhN5Ei-162" value="&lt;div&gt;Передача сырых данных&lt;/div&gt;[CDC]" style="edgeLabel;html=1;align=center;verticalAlign=middle;resizable=0;points=[];" parent="nFB4tpNnGNIT1_HhN5Ei-161" connectable="0" vertex="1">
          <mxGeometry x="-0.3918" y="-2" relative="1" as="geometry">
            <mxPoint y="1" as="offset" />
          </mxGeometry>
        </mxCell>
        <mxCell id="nFB4tpNnGNIT1_HhN5Ei-163" style="edgeStyle=orthogonalEdgeStyle;rounded=0;orthogonalLoop=1;jettySize=auto;html=1;entryX=0.5;entryY=0;entryDx=0;entryDy=0;entryPerimeter=0;exitX=0.5;exitY=1;exitDx=0;exitDy=0;exitPerimeter=0;" parent="1" target="nFB4tpNnGNIT1_HhN5Ei-181" edge="1" source="nFB4tpNnGNIT1_HhN5Ei-214">
          <mxGeometry relative="1" as="geometry">
            <mxPoint x="1139.9200000000005" y="370" as="targetPoint" />
            <mxPoint x="1510" y="210" as="sourcePoint" />
          </mxGeometry>
        </mxCell>
        <mxCell id="nFB4tpNnGNIT1_HhN5Ei-164" style="edgeStyle=orthogonalEdgeStyle;rounded=0;orthogonalLoop=1;jettySize=auto;html=1;entryX=0.5;entryY=0;entryDx=0;entryDy=0;entryPerimeter=0;" parent="1" source="nFB4tpNnGNIT1_HhN5Ei-141" target="nFB4tpNnGNIT1_HhN5Ei-142" edge="1">
          <mxGeometry relative="1" as="geometry" />
        </mxCell>
        <mxCell id="nFB4tpNnGNIT1_HhN5Ei-165" style="edgeStyle=orthogonalEdgeStyle;rounded=0;orthogonalLoop=1;jettySize=auto;html=1;" parent="1" source="nFB4tpNnGNIT1_HhN5Ei-166" target="nFB4tpNnGNIT1_HhN5Ei-207" edge="1">
          <mxGeometry relative="1" as="geometry">
            <Array as="points">
              <mxPoint x="480" y="520" />
              <mxPoint x="780" y="520" />
            </Array>
          </mxGeometry>
        </mxCell>
        <object placeholders="1" c4Name="Витрина продаж" c4Type="Container" c4Technology="JavaScript, React" c4Description="Витрина для подбора и бронирования объектов недвижимости" label="&lt;font style=&quot;font-size: 16px&quot;&gt;&lt;b&gt;%c4Name%&lt;/b&gt;&lt;/font&gt;&lt;div&gt;[%c4Type%: %c4Technology%]&lt;/div&gt;&lt;br&gt;&lt;div&gt;&lt;font style=&quot;font-size: 11px&quot;&gt;&lt;font color=&quot;#E6E6E6&quot;&gt;%c4Description%&lt;/font&gt;&lt;/div&gt;" id="nFB4tpNnGNIT1_HhN5Ei-166">
          <mxCell style="rounded=1;whiteSpace=wrap;html=1;fontSize=11;labelBackgroundColor=none;fillColor=#23A2D9;fontColor=#ffffff;align=center;arcSize=10;strokeColor=#0E7DAD;metaEdit=1;resizable=0;points=[[0.25,0,0],[0.5,0,0],[0.75,0,0],[1,0.25,0],[1,0.5,0],[1,0.75,0],[0.75,1,0],[0.5,1,0],[0.25,1,0],[0,0.75,0],[0,0.5,0],[0,0.25,0]];" parent="1" vertex="1">
            <mxGeometry x="330" y="370" width="240" height="120" as="geometry" />
          </mxCell>
        </object>
        <object placeholders="1" c4Name="PropDevelopment" c4Type="SystemScopeBoundary" c4Application="Software System" label="&lt;font style=&quot;font-size: 16px&quot;&gt;&lt;b&gt;&lt;div style=&quot;text-align: left&quot;&gt;%c4Name%&lt;/div&gt;&lt;/b&gt;&lt;/font&gt;&lt;div style=&quot;text-align: left&quot;&gt;[%c4Application%]&lt;/div&gt;" id="nFB4tpNnGNIT1_HhN5Ei-167">
          <mxCell style="rounded=1;fontSize=11;whiteSpace=wrap;html=1;dashed=1;arcSize=20;fillColor=none;strokeColor=#666666;fontColor=#333333;labelBackgroundColor=none;align=left;verticalAlign=bottom;labelBorderColor=none;spacingTop=0;spacing=10;dashPattern=8 4;metaEdit=1;rotatable=0;perimeter=rectanglePerimeter;noLabel=0;labelPadding=0;allowArrows=0;connectable=0;expand=0;recursiveResize=0;editable=1;pointerEvents=0;absoluteArcSize=1;points=[[0.25,0,0],[0.5,0,0],[0.75,0,0],[1,0.25,0],[1,0.5,0],[1,0.75,0],[0.75,1,0],[0.5,1,0],[0.25,1,0],[0,0.75,0],[0,0.5,0],[0,0.25,0]];" parent="1" vertex="1">
            <mxGeometry x="-420" y="340" width="2880" height="2760" as="geometry" />
          </mxCell>
        </object>
        <object placeholders="1" c4Name="Active Directory" c4Type="Container" c4Technology="MS Active directory" c4Description="Служба каталогов, которая обслуживает финансовые сервисы" label="&lt;font style=&quot;font-size: 16px&quot;&gt;&lt;b&gt;%c4Name%&lt;/b&gt;&lt;/font&gt;&lt;div&gt;[%c4Type%: %c4Technology%]&lt;/div&gt;&lt;br&gt;&lt;div&gt;&lt;font style=&quot;font-size: 11px&quot;&gt;&lt;font color=&quot;#E6E6E6&quot;&gt;%c4Description%&lt;/font&gt;&lt;/div&gt;" id="nFB4tpNnGNIT1_HhN5Ei-168">
          <mxCell style="rounded=1;whiteSpace=wrap;html=1;fontSize=11;labelBackgroundColor=none;fillColor=#23A2D9;fontColor=#ffffff;align=center;arcSize=10;strokeColor=#0E7DAD;metaEdit=1;resizable=0;points=[[0.25,0,0],[0.5,0,0],[0.75,0,0],[1,0.25,0],[1,0.5,0],[1,0.75,0],[0.75,1,0],[0.5,1,0],[0.25,1,0],[0,0.75,0],[0,0.5,0],[0,0.25,0]];" parent="1" vertex="1">
            <mxGeometry x="-320" y="1239" width="240" height="120" as="geometry" />
          </mxCell>
        </object>
        <object placeholders="1" c4Name="Active Directory" c4Type="Container" c4Technology="MS Active directory" c4Description="Служба каталогов, которая обслуживает прикладные бизнес-системы и системы обработки данных" label="&lt;font style=&quot;font-size: 16px&quot;&gt;&lt;b&gt;%c4Name%&lt;/b&gt;&lt;/font&gt;&lt;div&gt;[%c4Type%: %c4Technology%]&lt;/div&gt;&lt;br&gt;&lt;div&gt;&lt;font style=&quot;font-size: 11px&quot;&gt;&lt;font color=&quot;#E6E6E6&quot;&gt;%c4Description%&lt;/font&gt;&lt;/div&gt;" id="nFB4tpNnGNIT1_HhN5Ei-169">
          <mxCell style="rounded=1;whiteSpace=wrap;html=1;fontSize=11;labelBackgroundColor=none;fillColor=#23A2D9;fontColor=#ffffff;align=center;arcSize=10;strokeColor=#0E7DAD;metaEdit=1;resizable=0;points=[[0.25,0,0],[0.5,0,0],[0.75,0,0],[1,0.25,0],[1,0.5,0],[1,0.75,0],[0.75,1,0],[0.5,1,0],[0.25,1,0],[0,0.75,0],[0,0.5,0],[0,0.25,0]];" parent="1" vertex="1">
            <mxGeometry x="30" y="1920" width="240" height="120" as="geometry" />
          </mxCell>
        </object>
        <mxCell id="nFB4tpNnGNIT1_HhN5Ei-170" style="edgeStyle=orthogonalEdgeStyle;rounded=0;orthogonalLoop=1;jettySize=auto;html=1;" parent="1" source="nFB4tpNnGNIT1_HhN5Ei-171" target="nFB4tpNnGNIT1_HhN5Ei-187" edge="1">
          <mxGeometry relative="1" as="geometry" />
        </mxCell>
        <object placeholders="1" c4Name="Бухгалтер" c4Type="Person" c4Description="Ведёт бухгалтерский учёт" label="&lt;font style=&quot;font-size: 16px&quot;&gt;&lt;b&gt;%c4Name%&lt;/b&gt;&lt;/font&gt;&lt;div&gt;[%c4Type%]&lt;/div&gt;&lt;br&gt;&lt;div&gt;&lt;font style=&quot;font-size: 11px&quot;&gt;&lt;font color=&quot;#cccccc&quot;&gt;%c4Description%&lt;/font&gt;&lt;/div&gt;" id="nFB4tpNnGNIT1_HhN5Ei-171">
          <mxCell style="html=1;fontSize=11;dashed=0;whiteSpace=wrap;fillColor=#083F75;strokeColor=#06315C;fontColor=#ffffff;shape=mxgraph.c4.person2;align=center;metaEdit=1;points=[[0.5,0,0],[1,0.5,0],[1,0.75,0],[0.75,1,0],[0.5,1,0],[0.25,1,0],[0,0.75,0],[0,0.5,0]];resizable=0;" parent="1" vertex="1">
            <mxGeometry x="-870" y="1590" width="200" height="180" as="geometry" />
          </mxCell>
        </object>
        <object placeholders="1" c4Name="Менеджер" c4Type="Person" c4Description="Работает с клиентами и объектами недвижимости, администрирует онлайн-сделки" label="&lt;font style=&quot;font-size: 16px&quot;&gt;&lt;b&gt;%c4Name%&lt;/b&gt;&lt;/font&gt;&lt;div&gt;[%c4Type%]&lt;/div&gt;&lt;br&gt;&lt;div&gt;&lt;font style=&quot;font-size: 11px&quot;&gt;&lt;font color=&quot;#cccccc&quot;&gt;%c4Description%&lt;/font&gt;&lt;/div&gt;" id="nFB4tpNnGNIT1_HhN5Ei-172">
          <mxCell style="html=1;fontSize=11;dashed=0;whiteSpace=wrap;fillColor=#083F75;strokeColor=#06315C;fontColor=#ffffff;shape=mxgraph.c4.person2;align=center;metaEdit=1;points=[[0.5,0,0],[1,0.5,0],[1,0.75,0],[0.75,1,0],[0.5,1,0],[0.25,1,0],[0,0.75,0],[0,0.5,0]];resizable=0;" parent="1" vertex="1">
            <mxGeometry x="-870" y="790" width="200" height="180" as="geometry" />
          </mxCell>
        </object>
        <object placeholders="1" c4Name="auth-service-1" c4Type="Container" c4Technology="Keycloak" c4Description="Сервис аутентификации покупателей" label="&lt;font style=&quot;font-size: 16px&quot;&gt;&lt;b&gt;%c4Name%&lt;/b&gt;&lt;/font&gt;&lt;div&gt;[%c4Type%: %c4Technology%]&lt;/div&gt;&lt;br&gt;&lt;div&gt;&lt;font style=&quot;font-size: 11px&quot;&gt;&lt;font color=&quot;#E6E6E6&quot;&gt;%c4Description%&lt;/font&gt;&lt;/div&gt;" id="nFB4tpNnGNIT1_HhN5Ei-173">
          <mxCell style="rounded=1;whiteSpace=wrap;html=1;fontSize=11;labelBackgroundColor=none;fillColor=#23A2D9;fontColor=#ffffff;align=center;arcSize=10;strokeColor=#0E7DAD;metaEdit=1;resizable=0;points=[[0.25,0,0],[0.5,0,0],[0.75,0,0],[1,0.25,0],[1,0.5,0],[1,0.75,0],[0.75,1,0],[0.5,1,0],[0.25,1,0],[0,0.75,0],[0,0.5,0],[0,0.25,0]];" parent="1" vertex="1">
            <mxGeometry x="910" y="510" width="240" height="120" as="geometry" />
          </mxCell>
        </object>
        <mxCell id="nFB4tpNnGNIT1_HhN5Ei-174" style="edgeStyle=orthogonalEdgeStyle;rounded=0;orthogonalLoop=1;jettySize=auto;html=1;entryX=0.5;entryY=0;entryDx=0;entryDy=0;entryPerimeter=0;" parent="1" source="nFB4tpNnGNIT1_HhN5Ei-166" target="nFB4tpNnGNIT1_HhN5Ei-173" edge="1">
          <mxGeometry relative="1" as="geometry">
            <mxPoint x="1160" y="565" as="targetPoint" />
            <Array as="points">
              <mxPoint x="1030" y="460" />
            </Array>
          </mxGeometry>
        </mxCell>
        <mxCell id="nFB4tpNnGNIT1_HhN5Ei-175" value="Регистрация&lt;div&gt;Аутентификация&lt;/div&gt;&lt;div&gt;[REST]&lt;/div&gt;" style="edgeLabel;html=1;align=center;verticalAlign=middle;resizable=0;points=[];" parent="nFB4tpNnGNIT1_HhN5Ei-174" connectable="0" vertex="1">
          <mxGeometry x="0.2782" relative="1" as="geometry">
            <mxPoint x="134" y="-30" as="offset" />
          </mxGeometry>
        </mxCell>
        <object placeholders="1" c4Name="auth-db-1" c4Type="Container" c4Technology="PostgreSQL" c4Description="База данных сервиса аутентификации покупателей" label="&lt;font style=&quot;font-size: 16px&quot;&gt;&lt;b&gt;%c4Name%&lt;/b&gt;&lt;/font&gt;&lt;div&gt;[%c4Type%:&amp;nbsp;%c4Technology%]&lt;/div&gt;&lt;br&gt;&lt;div&gt;&lt;font style=&quot;font-size: 11px&quot;&gt;&lt;font color=&quot;#E6E6E6&quot;&gt;%c4Description%&lt;/font&gt;&lt;/div&gt;" id="nFB4tpNnGNIT1_HhN5Ei-176">
          <mxCell style="shape=cylinder3;size=15;whiteSpace=wrap;html=1;boundedLbl=1;rounded=0;labelBackgroundColor=none;fillColor=#23A2D9;fontSize=12;fontColor=#ffffff;align=center;strokeColor=#0E7DAD;metaEdit=1;points=[[0.5,0,0],[1,0.25,0],[1,0.5,0],[1,0.75,0],[0.5,1,0],[0,0.75,0],[0,0.5,0],[0,0.25,0]];resizable=0;" parent="1" vertex="1">
            <mxGeometry x="910" y="680" width="240" height="120" as="geometry" />
          </mxCell>
        </object>
        <mxCell id="nFB4tpNnGNIT1_HhN5Ei-177" style="edgeStyle=orthogonalEdgeStyle;rounded=0;orthogonalLoop=1;jettySize=auto;html=1;entryX=0.5;entryY=0;entryDx=0;entryDy=0;entryPerimeter=0;" parent="1" source="nFB4tpNnGNIT1_HhN5Ei-173" target="nFB4tpNnGNIT1_HhN5Ei-176" edge="1">
          <mxGeometry relative="1" as="geometry" />
        </mxCell>
        <mxCell id="nFB4tpNnGNIT1_HhN5Ei-178" style="edgeStyle=orthogonalEdgeStyle;rounded=0;orthogonalLoop=1;jettySize=auto;html=1;exitX=0.005;exitY=0.33;exitDx=0;exitDy=0;exitPerimeter=0;entryX=0.5;entryY=0;entryDx=0;entryDy=0;entryPerimeter=0;" parent="1" source="nFB4tpNnGNIT1_HhN5Ei-181" target="nFB4tpNnGNIT1_HhN5Ei-173" edge="1">
          <mxGeometry relative="1" as="geometry">
            <mxPoint x="1160" y="535" as="targetPoint" />
            <Array as="points">
              <mxPoint x="1390" y="460" />
              <mxPoint x="1040" y="460" />
            </Array>
          </mxGeometry>
        </mxCell>
        <mxCell id="nFB4tpNnGNIT1_HhN5Ei-179" style="edgeStyle=orthogonalEdgeStyle;rounded=0;orthogonalLoop=1;jettySize=auto;html=1;" parent="1" source="nFB4tpNnGNIT1_HhN5Ei-181" target="nFB4tpNnGNIT1_HhN5Ei-121" edge="1">
          <mxGeometry relative="1" as="geometry">
            <Array as="points">
              <mxPoint x="1670" y="560" />
              <mxPoint x="1890" y="560" />
            </Array>
          </mxGeometry>
        </mxCell>
        <mxCell id="nFB4tpNnGNIT1_HhN5Ei-180" value="[REST]" style="edgeLabel;html=1;align=center;verticalAlign=middle;resizable=0;points=[];" parent="nFB4tpNnGNIT1_HhN5Ei-179" connectable="0" vertex="1">
          <mxGeometry x="-0.3582" y="2" relative="1" as="geometry">
            <mxPoint x="1" as="offset" />
          </mxGeometry>
        </mxCell>
        <object placeholders="1" c4Name="Витрина сервисов для собственников" c4Type="Container" c4Technology="Mobile app(iOS, Android)" c4Description="Мобильные приложения для собственников" label="&lt;font style=&quot;font-size: 16px&quot;&gt;&lt;b&gt;%c4Name%&lt;/b&gt;&lt;/font&gt;&lt;div&gt;[%c4Type%: %c4Technology%]&lt;/div&gt;&lt;br&gt;&lt;div&gt;&lt;font style=&quot;font-size: 11px&quot;&gt;&lt;font color=&quot;#E6E6E6&quot;&gt;%c4Description%&lt;/font&gt;&lt;/div&gt;" id="nFB4tpNnGNIT1_HhN5Ei-181">
          <mxCell style="rounded=1;whiteSpace=wrap;html=1;fontSize=11;labelBackgroundColor=none;fillColor=#23A2D9;fontColor=#ffffff;align=center;arcSize=10;strokeColor=#0E7DAD;metaEdit=1;resizable=0;points=[[0.25,0,0],[0.5,0,0],[0.75,0,0],[1,0.25,0],[1,0.5,0],[1,0.75,0],[0.75,1,0],[0.5,1,0],[0.25,1,0],[0,0.75,0],[0,0.5,0],[0,0.25,0]];" parent="1" vertex="1">
            <mxGeometry x="1550" y="420" width="240" height="120" as="geometry" />
          </mxCell>
        </object>
        <object placeholders="1" c4Name="auth-service-1" c4Type="Container" c4Technology="Keycloak" c4Description="Сервис аутентификации покупателей." label="&lt;font style=&quot;font-size: 16px&quot;&gt;&lt;b&gt;%c4Name%&lt;/b&gt;&lt;/font&gt;&lt;div&gt;[%c4Type%: %c4Technology%]&lt;/div&gt;&lt;br&gt;&lt;div&gt;&lt;font style=&quot;font-size: 11px&quot;&gt;&lt;font color=&quot;#E6E6E6&quot;&gt;%c4Description%&lt;/font&gt;&lt;/div&gt;" id="nFB4tpNnGNIT1_HhN5Ei-182">
          <mxCell style="rounded=1;whiteSpace=wrap;html=1;fontSize=11;labelBackgroundColor=none;fillColor=#23A2D9;fontColor=#ffffff;align=center;arcSize=10;strokeColor=#0E7DAD;metaEdit=1;resizable=0;points=[[0.25,0,0],[0.5,0,0],[0.75,0,0],[1,0.25,0],[1,0.5,0],[1,0.75,0],[0.75,1,0],[0.5,1,0],[0.25,1,0],[0,0.75,0],[0,0.5,0],[0,0.25,0]];" parent="1" vertex="1">
            <mxGeometry x="-300" y="1620" width="240" height="120" as="geometry" />
          </mxCell>
        </object>
        <object placeholders="1" c4Name="auth-db-1" c4Type="Container" c4Technology="PostgreSQL" c4Description="База данных сервиса аутентификации покупателей" label="&lt;font style=&quot;font-size: 16px&quot;&gt;&lt;b&gt;%c4Name%&lt;/b&gt;&lt;/font&gt;&lt;div&gt;[%c4Type%:&amp;nbsp;%c4Technology%]&lt;/div&gt;&lt;br&gt;&lt;div&gt;&lt;font style=&quot;font-size: 11px&quot;&gt;&lt;font color=&quot;#E6E6E6&quot;&gt;%c4Description%&lt;/font&gt;&lt;/div&gt;" id="nFB4tpNnGNIT1_HhN5Ei-183">
          <mxCell style="shape=cylinder3;size=15;whiteSpace=wrap;html=1;boundedLbl=1;rounded=0;labelBackgroundColor=none;fillColor=#23A2D9;fontSize=12;fontColor=#ffffff;align=center;strokeColor=#0E7DAD;metaEdit=1;points=[[0.5,0,0],[1,0.25,0],[1,0.5,0],[1,0.75,0],[0.5,1,0],[0,0.75,0],[0,0.5,0],[0,0.25,0]];resizable=0;" parent="1" vertex="1">
            <mxGeometry x="-300" y="1810" width="240" height="120" as="geometry" />
          </mxCell>
        </object>
        <mxCell id="nFB4tpNnGNIT1_HhN5Ei-184" style="edgeStyle=orthogonalEdgeStyle;rounded=0;orthogonalLoop=1;jettySize=auto;html=1;entryX=0.5;entryY=0;entryDx=0;entryDy=0;entryPerimeter=0;" parent="1" source="nFB4tpNnGNIT1_HhN5Ei-182" target="nFB4tpNnGNIT1_HhN5Ei-183" edge="1">
          <mxGeometry relative="1" as="geometry" />
        </mxCell>
        <mxCell id="nFB4tpNnGNIT1_HhN5Ei-185" style="edgeStyle=orthogonalEdgeStyle;rounded=0;orthogonalLoop=1;jettySize=auto;html=1;" parent="1" source="nFB4tpNnGNIT1_HhN5Ei-187" target="nFB4tpNnGNIT1_HhN5Ei-169" edge="1">
          <mxGeometry relative="1" as="geometry" />
        </mxCell>
        <mxCell id="nFB4tpNnGNIT1_HhN5Ei-186" value="Аутентификация" style="edgeLabel;html=1;align=center;verticalAlign=middle;resizable=0;points=[];" parent="nFB4tpNnGNIT1_HhN5Ei-185" connectable="0" vertex="1">
          <mxGeometry x="0.2659" relative="1" as="geometry">
            <mxPoint as="offset" />
          </mxGeometry>
        </mxCell>
        <object placeholders="1" c4Name="accountant-service-1" c4Type="Container" c4Technology="Keycloak" c4Description="Система бухгалтерского учёта" label="&lt;font style=&quot;font-size: 16px&quot;&gt;&lt;b&gt;%c4Name%&lt;/b&gt;&lt;/font&gt;&lt;div&gt;[%c4Type%: %c4Technology%]&lt;/div&gt;&lt;br&gt;&lt;div&gt;&lt;font style=&quot;font-size: 11px&quot;&gt;&lt;font color=&quot;#E6E6E6&quot;&gt;%c4Description%&lt;/font&gt;&lt;/div&gt;" id="nFB4tpNnGNIT1_HhN5Ei-187">
          <mxCell style="rounded=1;whiteSpace=wrap;html=1;fontSize=11;labelBackgroundColor=none;fillColor=#23A2D9;fontColor=#ffffff;align=center;arcSize=10;strokeColor=#0E7DAD;metaEdit=1;resizable=0;points=[[0.25,0,0],[0.5,0,0],[0.75,0,0],[1,0.25,0],[1,0.5,0],[1,0.75,0],[0.75,1,0],[0.5,1,0],[0.25,1,0],[0,0.75,0],[0,0.5,0],[0,0.25,0]];" parent="1" vertex="1">
            <mxGeometry x="-300" y="1620" width="240" height="120" as="geometry" />
          </mxCell>
        </object>
        <object placeholders="1" c4Name="auth-db-1" c4Type="Container" c4Technology="PostgreSQL" c4Description="База данных сервиса аутентификации покупателей" label="&lt;font style=&quot;font-size: 16px&quot;&gt;&lt;b&gt;%c4Name%&lt;/b&gt;&lt;/font&gt;&lt;div&gt;[%c4Type%:&amp;nbsp;%c4Technology%]&lt;/div&gt;&lt;br&gt;&lt;div&gt;&lt;font style=&quot;font-size: 11px&quot;&gt;&lt;font color=&quot;#E6E6E6&quot;&gt;%c4Description%&lt;/font&gt;&lt;/div&gt;" id="nFB4tpNnGNIT1_HhN5Ei-188">
          <mxCell style="shape=cylinder3;size=15;whiteSpace=wrap;html=1;boundedLbl=1;rounded=0;labelBackgroundColor=none;fillColor=#23A2D9;fontSize=12;fontColor=#ffffff;align=center;strokeColor=#0E7DAD;metaEdit=1;points=[[0.5,0,0],[1,0.25,0],[1,0.5,0],[1,0.75,0],[0.5,1,0],[0,0.75,0],[0,0.5,0],[0,0.25,0]];resizable=0;" parent="1" vertex="1">
            <mxGeometry x="-300" y="1810" width="240" height="120" as="geometry" />
          </mxCell>
        </object>
        <mxCell id="nFB4tpNnGNIT1_HhN5Ei-189" style="edgeStyle=orthogonalEdgeStyle;rounded=0;orthogonalLoop=1;jettySize=auto;html=1;exitX=1;exitY=0.75;exitDx=0;exitDy=0;exitPerimeter=0;" parent="1" source="nFB4tpNnGNIT1_HhN5Ei-172" edge="1">
          <mxGeometry relative="1" as="geometry">
            <mxPoint x="-420" y="930" as="targetPoint" />
            <Array as="points">
              <mxPoint x="-670" y="930" />
            </Array>
          </mxGeometry>
        </mxCell>
        <mxCell id="nFB4tpNnGNIT1_HhN5Ei-190" style="edgeStyle=orthogonalEdgeStyle;rounded=0;orthogonalLoop=1;jettySize=auto;html=1;entryX=1;entryY=0.5;entryDx=0;entryDy=0;entryPerimeter=0;" parent="1" source="nFB4tpNnGNIT1_HhN5Ei-141" target="nFB4tpNnGNIT1_HhN5Ei-168" edge="1">
          <mxGeometry relative="1" as="geometry">
            <Array as="points">
              <mxPoint x="725" y="1520" />
              <mxPoint x="-10" y="1520" />
              <mxPoint x="-10" y="1299" />
            </Array>
          </mxGeometry>
        </mxCell>
        <mxCell id="nFB4tpNnGNIT1_HhN5Ei-191" value="Аутентификация&amp;nbsp;&lt;div&gt;бизнес-аналитика&lt;/div&gt;" style="edgeLabel;html=1;align=center;verticalAlign=middle;resizable=0;points=[];" parent="nFB4tpNnGNIT1_HhN5Ei-190" connectable="0" vertex="1">
          <mxGeometry x="0.1545" y="-2" relative="1" as="geometry">
            <mxPoint x="1" as="offset" />
          </mxGeometry>
        </mxCell>
        <mxCell id="nFB4tpNnGNIT1_HhN5Ei-192" style="edgeStyle=orthogonalEdgeStyle;rounded=0;orthogonalLoop=1;jettySize=auto;html=1;exitX=1;exitY=0.75;exitDx=0;exitDy=0;exitPerimeter=0;" parent="1" source="nFB4tpNnGNIT1_HhN5Ei-193" edge="1">
          <mxGeometry relative="1" as="geometry">
            <mxPoint x="-420" y="1210" as="targetPoint" />
          </mxGeometry>
        </mxCell>
        <object placeholders="1" c4Name="Бизнес-аналитик" c4Type="Person" c4Description="Оптимизирует процессы и развивает прикладные бизнес-системы. Администрирует системы" label="&lt;font style=&quot;font-size: 16px&quot;&gt;&lt;b&gt;%c4Name%&lt;/b&gt;&lt;/font&gt;&lt;div&gt;[%c4Type%]&lt;/div&gt;&lt;br&gt;&lt;div&gt;&lt;font style=&quot;font-size: 11px&quot;&gt;&lt;font color=&quot;#cccccc&quot;&gt;%c4Description%&lt;/font&gt;&lt;/div&gt;" id="nFB4tpNnGNIT1_HhN5Ei-193">
          <mxCell style="html=1;fontSize=11;dashed=0;whiteSpace=wrap;fillColor=#083F75;strokeColor=#06315C;fontColor=#ffffff;shape=mxgraph.c4.person2;align=center;metaEdit=1;points=[[0.5,0,0],[1,0.5,0],[1,0.75,0],[0.75,1,0],[0.5,1,0],[0.25,1,0],[0,0.75,0],[0,0.5,0]];resizable=0;" parent="1" vertex="1">
            <mxGeometry x="-870" y="1075" width="200" height="180" as="geometry" />
          </mxCell>
        </object>
        <mxCell id="nFB4tpNnGNIT1_HhN5Ei-194" value="" style="edgeStyle=orthogonalEdgeStyle;rounded=0;orthogonalLoop=1;jettySize=auto;html=1;" parent="1" target="nFB4tpNnGNIT1_HhN5Ei-166" edge="1">
          <mxGeometry relative="1" as="geometry">
            <mxPoint x="450" y="220" as="sourcePoint" />
            <mxPoint x="450" y="370" as="targetPoint" />
          </mxGeometry>
        </mxCell>
        <mxCell id="nFB4tpNnGNIT1_HhN5Ei-195" value="" style="image;html=1;image=img/lib/clip_art/networking/Firewall_02_128x128.png" parent="1" vertex="1">
          <mxGeometry x="410" y="250" width="80" height="80" as="geometry" />
        </mxCell>
        <mxCell id="nFB4tpNnGNIT1_HhN5Ei-197" value="Firewall" style="text;html=1;align=center;verticalAlign=middle;whiteSpace=wrap;rounded=0;" parent="1" vertex="1">
          <mxGeometry x="480" y="275" width="60" height="30" as="geometry" />
        </mxCell>
        <mxCell id="nFB4tpNnGNIT1_HhN5Ei-199" value="&lt;b&gt;Группа сервисов&amp;nbsp;&lt;/b&gt;&lt;b style=&quot;background-color: initial;&quot;&gt;ЖКУ&lt;/b&gt;" style="text;html=1;align=center;verticalAlign=middle;whiteSpace=wrap;rounded=0;" parent="1" vertex="1">
          <mxGeometry x="1890" y="400" width="90" height="30" as="geometry" />
        </mxCell>
        <mxCell id="nFB4tpNnGNIT1_HhN5Ei-200" value="&lt;b&gt;Группа сервисов для клиентов&lt;/b&gt;" style="text;html=1;align=center;verticalAlign=middle;whiteSpace=wrap;rounded=0;" parent="1" vertex="1">
          <mxGeometry x="660" y="350" width="100" height="105" as="geometry" />
        </mxCell>
        <object placeholders="1" c4Name="Аналитик BI" c4Type="Person" c4Description="Анализирует данные и готовит отчётность" label="&lt;font style=&quot;font-size: 16px&quot;&gt;&lt;b&gt;%c4Name%&lt;/b&gt;&lt;/font&gt;&lt;div&gt;[%c4Type%]&lt;/div&gt;&lt;br&gt;&lt;div&gt;&lt;font style=&quot;font-size: 11px&quot;&gt;&lt;font color=&quot;#cccccc&quot;&gt;%c4Description%&lt;/font&gt;&lt;/div&gt;" id="nFB4tpNnGNIT1_HhN5Ei-201">
          <mxCell style="html=1;fontSize=11;dashed=0;whiteSpace=wrap;fillColor=#083F75;strokeColor=#06315C;fontColor=#ffffff;shape=mxgraph.c4.person2;align=center;metaEdit=1;points=[[0.5,0,0],[1,0.5,0],[1,0.75,0],[0.75,1,0],[0.5,1,0],[0.25,1,0],[0,0.75,0],[0,0.5,0]];resizable=0;" parent="1" vertex="1">
            <mxGeometry x="2765" y="1384.5" width="200" height="180" as="geometry" />
          </mxCell>
        </object>
        <mxCell id="nFB4tpNnGNIT1_HhN5Ei-202" style="edgeStyle=orthogonalEdgeStyle;rounded=0;orthogonalLoop=1;jettySize=auto;html=1;entryX=0.976;entryY=0.936;entryDx=0;entryDy=0;entryPerimeter=0;" parent="1" source="nFB4tpNnGNIT1_HhN5Ei-201" target="nFB4tpNnGNIT1_HhN5Ei-141" edge="1">
          <mxGeometry relative="1" as="geometry" />
        </mxCell>
        <mxCell id="nFB4tpNnGNIT1_HhN5Ei-204" style="edgeStyle=orthogonalEdgeStyle;rounded=0;orthogonalLoop=1;jettySize=auto;html=1;entryX=1;entryY=0.5;entryDx=0;entryDy=0;entryPerimeter=0;exitX=1;exitY=0.5;exitDx=0;exitDy=0;exitPerimeter=0;" parent="1" source="nFB4tpNnGNIT1_HhN5Ei-118" target="nFB4tpNnGNIT1_HhN5Ei-147" edge="1">
          <mxGeometry relative="1" as="geometry">
            <mxPoint x="620" y="890" as="sourcePoint" />
            <mxPoint x="740" y="620" as="targetPoint" />
            <Array as="points">
              <mxPoint x="610" y="940" />
              <mxPoint x="610" y="610" />
            </Array>
          </mxGeometry>
        </mxCell>
        <mxCell id="nFB4tpNnGNIT1_HhN5Ei-205" value="Публикация&amp;nbsp;&lt;div&gt;каталога объектов&lt;div&gt;[Kafka]&lt;/div&gt;&lt;/div&gt;" style="edgeLabel;html=1;align=center;verticalAlign=middle;resizable=0;points=[];" parent="nFB4tpNnGNIT1_HhN5Ei-204" connectable="0" vertex="1">
          <mxGeometry x="0.1891" y="1" relative="1" as="geometry">
            <mxPoint x="21" y="-41" as="offset" />
          </mxGeometry>
        </mxCell>
        <mxCell id="nFB4tpNnGNIT1_HhN5Ei-206" style="edgeStyle=orthogonalEdgeStyle;rounded=0;orthogonalLoop=1;jettySize=auto;html=1;" parent="1" source="nFB4tpNnGNIT1_HhN5Ei-207" target="nFB4tpNnGNIT1_HhN5Ei-208" edge="1">
          <mxGeometry relative="1" as="geometry" />
        </mxCell>
        <object placeholders="1" c4Name="client-tour-app" c4Type="Container" c4Technology="Container: Kotlin, SpringBoot" c4Description="Приложение для проведения 3D-тура по объекту недвижимости (онлайн-тур)" label="&lt;font style=&quot;font-size: 16px&quot;&gt;&lt;b&gt;%c4Name%&lt;/b&gt;&lt;/font&gt;&lt;div&gt;[%c4Type%: %c4Technology%]&lt;/div&gt;&lt;br&gt;&lt;div&gt;&lt;font style=&quot;font-size: 11px&quot;&gt;&lt;font color=&quot;#E6E6E6&quot;&gt;%c4Description%&lt;/font&gt;&lt;/div&gt;" id="nFB4tpNnGNIT1_HhN5Ei-207">
          <mxCell style="rounded=1;whiteSpace=wrap;html=1;fontSize=11;labelBackgroundColor=none;fillColor=#23A2D9;fontColor=#ffffff;align=center;arcSize=10;strokeColor=#0E7DAD;metaEdit=1;resizable=0;points=[[0.25,0,0],[0.5,0,0],[0.75,0,0],[1,0.25,0],[1,0.5,0],[1,0.75,0],[0.75,1,0],[0.5,1,0],[0.25,1,0],[0,0.75,0],[0,0.5,0],[0,0.25,0]];" parent="1" vertex="1">
            <mxGeometry x="650" y="550" width="240" height="120" as="geometry" />
          </mxCell>
        </object>
        <object placeholders="1" c4Name="client-tour-db" c4Type="Container" c4Technology="PostgreSQL" c4Description="База данных проведения онлайн-тура" label="&lt;font style=&quot;font-size: 14px&quot;&gt;&lt;b&gt;%c4Name%&lt;/b&gt;&lt;/font&gt;&lt;div&gt;[%c4Type%:&amp;nbsp;%c4Technology%]&lt;/div&gt;&lt;br&gt;&lt;div&gt;&lt;font style=&quot;font-size: 11px&quot;&gt;&lt;font color=&quot;#E6E6E6&quot;&gt;%c4Description%&lt;/font&gt;&lt;/div&gt;" id="nFB4tpNnGNIT1_HhN5Ei-208">
          <mxCell style="shape=cylinder3;size=15;whiteSpace=wrap;html=1;boundedLbl=1;rounded=0;labelBackgroundColor=none;fillColor=#23A2D9;fontSize=12;fontColor=#ffffff;align=center;strokeColor=#0E7DAD;metaEdit=1;points=[[0.5,0,0],[1,0.25,0],[1,0.5,0],[1,0.75,0],[0.5,1,0],[0,0.75,0],[0,0.5,0],[0,0.25,0]];resizable=0;" parent="1" vertex="1">
            <mxGeometry x="650" y="700" width="240" height="120" as="geometry" />
          </mxCell>
        </object>
        <mxCell id="nFB4tpNnGNIT1_HhN5Ei-209" style="edgeStyle=orthogonalEdgeStyle;rounded=0;orthogonalLoop=1;jettySize=auto;html=1;entryX=0;entryY=0.5;entryDx=0;entryDy=0;entryPerimeter=0;" parent="1" source="nFB4tpNnGNIT1_HhN5Ei-118" target="nFB4tpNnGNIT1_HhN5Ei-207" edge="1">
          <mxGeometry relative="1" as="geometry">
            <Array as="points">
              <mxPoint x="610" y="940" />
              <mxPoint x="610" y="610" />
            </Array>
          </mxGeometry>
        </mxCell>
        <object placeholders="1" c4Name="Государственные регистрационные органы" c4Type="Software System" c4Description="Отвечают за регистрационные действия с объектами недвижимости" label="&lt;font style=&quot;font-size: 16px&quot;&gt;&lt;b&gt;%c4Name%&lt;/b&gt;&lt;/font&gt;&lt;div&gt;[%c4Type%]&lt;/div&gt;&lt;br&gt;&lt;div&gt;&lt;font style=&quot;font-size: 11px&quot;&gt;&lt;font color=&quot;#cccccc&quot;&gt;%c4Description%&lt;/font&gt;&lt;/div&gt;" id="nFB4tpNnGNIT1_HhN5Ei-210">
          <mxCell style="rounded=1;whiteSpace=wrap;html=1;labelBackgroundColor=none;fillColor=#8C8496;fontColor=#ffffff;align=center;arcSize=10;strokeColor=#736782;metaEdit=1;resizable=0;points=[[0.25,0,0],[0.5,0,0],[0.75,0,0],[1,0.25,0],[1,0.5,0],[1,0.75,0],[0.75,1,0],[0.5,1,0],[0.25,1,0],[0,0.75,0],[0,0.5,0],[0,0.25,0]];" parent="1" vertex="1">
            <mxGeometry x="-880" y="610" width="240" height="120" as="geometry" />
          </mxCell>
        </object>
        <mxCell id="nFB4tpNnGNIT1_HhN5Ei-211" style="edgeStyle=orthogonalEdgeStyle;rounded=0;orthogonalLoop=1;jettySize=auto;html=1;entryX=1;entryY=0.5;entryDx=0;entryDy=0;entryPerimeter=0;exitX=0;exitY=0.5;exitDx=0;exitDy=0;exitPerimeter=0;" parent="1" source="nFB4tpNnGNIT1_HhN5Ei-147" target="nFB4tpNnGNIT1_HhN5Ei-210" edge="1">
          <mxGeometry relative="1" as="geometry">
            <Array as="points">
              <mxPoint x="320" y="610" />
              <mxPoint x="320" y="680" />
              <mxPoint x="-140" y="680" />
              <mxPoint x="-140" y="670" />
              <mxPoint x="-610" y="670" />
            </Array>
          </mxGeometry>
        </mxCell>
        <mxCell id="nFB4tpNnGNIT1_HhN5Ei-212" value="СМЭВ&lt;div&gt;[SOAP]&lt;/div&gt;" style="edgeLabel;html=1;align=center;verticalAlign=middle;resizable=0;points=[];" parent="nFB4tpNnGNIT1_HhN5Ei-211" connectable="0" vertex="1">
          <mxGeometry x="0.1438" y="2" relative="1" as="geometry">
            <mxPoint x="50" y="-2" as="offset" />
          </mxGeometry>
        </mxCell>
        <object placeholders="1" c4Name="Клиент" c4Type="Person" c4Description="Клиент" label="&lt;font style=&quot;font-size: 16px&quot;&gt;&lt;b&gt;%c4Name%&lt;/b&gt;&lt;/font&gt;&lt;div&gt;[%c4Type%]&lt;/div&gt;&lt;br&gt;&lt;div&gt;&lt;font style=&quot;font-size: 11px&quot;&gt;&lt;font color=&quot;#cccccc&quot;&gt;%c4Description%&lt;/font&gt;&lt;/div&gt;" id="nFB4tpNnGNIT1_HhN5Ei-213">
          <mxCell style="html=1;fontSize=11;dashed=0;whiteSpace=wrap;fillColor=#083F75;strokeColor=#06315C;fontColor=#ffffff;shape=mxgraph.c4.person2;align=center;metaEdit=1;points=[[0.5,0,0],[1,0.5,0],[1,0.75,0],[0.75,1,0],[0.5,1,0],[0.25,1,0],[0,0.75,0],[0,0.5,0]];resizable=0;" parent="1" vertex="1">
            <mxGeometry x="350" y="40" width="200" height="180" as="geometry" />
          </mxCell>
        </object>
        <object placeholders="1" c4Name="Собственник" c4Type="Person" c4Description="Клиент" label="&lt;font style=&quot;font-size: 16px&quot;&gt;&lt;b&gt;%c4Name%&lt;/b&gt;&lt;/font&gt;&lt;div&gt;[%c4Type%]&lt;/div&gt;&lt;br&gt;&lt;div&gt;&lt;font style=&quot;font-size: 11px&quot;&gt;&lt;font color=&quot;#cccccc&quot;&gt;%c4Description%&lt;/font&gt;&lt;/div&gt;" id="nFB4tpNnGNIT1_HhN5Ei-214">
          <mxCell style="html=1;fontSize=11;dashed=0;whiteSpace=wrap;fillColor=#083F75;strokeColor=#06315C;fontColor=#ffffff;shape=mxgraph.c4.person2;align=center;metaEdit=1;points=[[0.5,0,0],[1,0.5,0],[1,0.75,0],[0.75,1,0],[0.5,1,0],[0.25,1,0],[0,0.75,0],[0,0.5,0]];resizable=0;" parent="1" vertex="1">
            <mxGeometry x="1569" width="200" height="180" as="geometry" />
          </mxCell>
        </object>
        <mxCell id="HqGlKzRuzg-hRhUa5EaZ-3" value="" style="group" vertex="1" connectable="0" parent="1">
          <mxGeometry x="1420" y="1580" width="420" height="520" as="geometry" />
        </mxCell>
        <mxCell id="HqGlKzRuzg-hRhUa5EaZ-1" value="" style="rounded=1;whiteSpace=wrap;html=1;" vertex="1" parent="HqGlKzRuzg-hRhUa5EaZ-3">
          <mxGeometry width="420" height="520" as="geometry" />
        </mxCell>
        <mxCell id="HqGlKzRuzg-hRhUa5EaZ-2" value="&lt;b&gt;Общая группа сервисов мобильных приложений&lt;/b&gt;" style="text;html=1;align=center;verticalAlign=middle;whiteSpace=wrap;rounded=0;" vertex="1" parent="HqGlKzRuzg-hRhUa5EaZ-3">
          <mxGeometry x="31" y="20" width="100" height="105" as="geometry" />
        </mxCell>
        <mxCell id="HqGlKzRuzg-hRhUa5EaZ-6" style="edgeStyle=orthogonalEdgeStyle;rounded=0;orthogonalLoop=1;jettySize=auto;html=1;exitX=0.5;exitY=1;exitDx=0;exitDy=0;exitPerimeter=0;" edge="1" parent="HqGlKzRuzg-hRhUa5EaZ-3" source="HqGlKzRuzg-hRhUa5EaZ-4" target="HqGlKzRuzg-hRhUa5EaZ-5">
          <mxGeometry relative="1" as="geometry" />
        </mxCell>
        <object placeholders="1" c4Name="API Gateway" c4Type="Container" c4Technology="Kong" c4Description="Отвечает за маршрутизацию запросов пользователей и лимиты" label="&lt;font style=&quot;font-size: 16px&quot;&gt;&lt;b&gt;%c4Name%&lt;/b&gt;&lt;/font&gt;&lt;div&gt;[%c4Type%: %c4Technology%]&lt;/div&gt;&lt;br&gt;&lt;div&gt;&lt;font style=&quot;font-size: 11px&quot;&gt;&lt;font color=&quot;#E6E6E6&quot;&gt;%c4Description%&lt;/font&gt;&lt;/div&gt;" id="HqGlKzRuzg-hRhUa5EaZ-4">
          <mxCell style="rounded=1;whiteSpace=wrap;html=1;fontSize=11;labelBackgroundColor=none;fillColor=#23A2D9;fontColor=#ffffff;align=center;arcSize=10;strokeColor=#0E7DAD;metaEdit=1;resizable=0;points=[[0.25,0,0],[0.5,0,0],[0.75,0,0],[1,0.25,0],[1,0.5,0],[1,0.75,0],[0.75,1,0],[0.5,1,0],[0.25,1,0],[0,0.75,0],[0,0.5,0],[0,0.25,0]];" vertex="1" parent="HqGlKzRuzg-hRhUa5EaZ-3">
            <mxGeometry x="100" y="125" width="240" height="120" as="geometry" />
          </mxCell>
        </object>
        <object placeholders="1" c4Name="БД Gateway" c4Type="Container" c4Technology="Postrgesql" c4Description="Хранит постоянные данные для gateway" label="&lt;font style=&quot;font-size: 16px&quot;&gt;&lt;b&gt;%c4Name%&lt;/b&gt;&lt;/font&gt;&lt;div&gt;[%c4Type%:&amp;nbsp;%c4Technology%]&lt;/div&gt;&lt;br&gt;&lt;div&gt;&lt;font style=&quot;font-size: 11px&quot;&gt;&lt;font color=&quot;#E6E6E6&quot;&gt;%c4Description%&lt;/font&gt;&lt;/div&gt;" id="HqGlKzRuzg-hRhUa5EaZ-5">
          <mxCell style="shape=cylinder3;size=15;whiteSpace=wrap;html=1;boundedLbl=1;rounded=0;labelBackgroundColor=none;fillColor=#23A2D9;fontSize=12;fontColor=#ffffff;align=center;strokeColor=#0E7DAD;metaEdit=1;points=[[0.5,0,0],[1,0.25,0],[1,0.5,0],[1,0.75,0],[0.5,1,0],[0,0.75,0],[0,0.5,0],[0,0.25,0]];resizable=0;" vertex="1" parent="HqGlKzRuzg-hRhUa5EaZ-3">
            <mxGeometry x="100" y="320" width="240" height="120" as="geometry" />
          </mxCell>
        </object>
        <mxCell id="HqGlKzRuzg-hRhUa5EaZ-7" value="" style="group" vertex="1" connectable="0" parent="1">
          <mxGeometry x="2690" y="387.5" width="350" height="190" as="geometry" />
        </mxCell>
        <object placeholders="1" c4Name="Поставщик ресурсов ЖКХ" c4Type="Software System" c4Description="" label="&lt;font style=&quot;font-size: 16px&quot;&gt;&lt;b&gt;%c4Name%&lt;/b&gt;&lt;/font&gt;&lt;div&gt;[%c4Type%]&lt;/div&gt;&lt;br&gt;&lt;div&gt;&lt;font style=&quot;font-size: 11px&quot;&gt;&lt;font color=&quot;#cccccc&quot;&gt;%c4Description%&lt;/font&gt;&lt;/div&gt;" id="nFB4tpNnGNIT1_HhN5Ei-108">
          <mxCell style="rounded=1;whiteSpace=wrap;html=1;labelBackgroundColor=none;fillColor=#8C8496;fontColor=#ffffff;align=center;arcSize=10;strokeColor=#736782;metaEdit=1;resizable=0;points=[[0.25,0,0],[0.5,0,0],[0.75,0,0],[1,0.25,0],[1,0.5,0],[1,0.75,0],[0.75,1,0],[0.5,1,0],[0.25,1,0],[0,0.75,0],[0,0.5,0],[0,0.25,0]];" parent="HqGlKzRuzg-hRhUa5EaZ-7" vertex="1">
            <mxGeometry x="110" width="240" height="120" as="geometry" />
          </mxCell>
        </object>
        <object placeholders="1" c4Name="Поставщик ресурсов ЖКХ" c4Type="Software System" c4Description="" label="&lt;font style=&quot;font-size: 16px&quot;&gt;&lt;b&gt;%c4Name%&lt;/b&gt;&lt;/font&gt;&lt;div&gt;[%c4Type%]&lt;/div&gt;&lt;br&gt;&lt;div&gt;&lt;font style=&quot;font-size: 11px&quot;&gt;&lt;font color=&quot;#cccccc&quot;&gt;%c4Description%&lt;/font&gt;&lt;/div&gt;" id="nFB4tpNnGNIT1_HhN5Ei-109">
          <mxCell style="rounded=1;whiteSpace=wrap;html=1;labelBackgroundColor=none;fillColor=#8C8496;fontColor=#ffffff;align=center;arcSize=10;strokeColor=#736782;metaEdit=1;resizable=0;points=[[0.25,0,0],[0.5,0,0],[0.75,0,0],[1,0.25,0],[1,0.5,0],[1,0.75,0],[0.75,1,0],[0.5,1,0],[0.25,1,0],[0,0.75,0],[0,0.5,0],[0,0.25,0]];" parent="HqGlKzRuzg-hRhUa5EaZ-7" vertex="1">
            <mxGeometry x="70" y="25" width="240" height="120" as="geometry" />
          </mxCell>
        </object>
        <object placeholders="1" c4Name="Поставщик ресурсов ЖКХ" c4Type="Software System" c4Description="." label="&lt;font style=&quot;font-size: 16px&quot;&gt;&lt;b&gt;%c4Name%&lt;/b&gt;&lt;/font&gt;&lt;div&gt;[%c4Type%]&lt;/div&gt;&lt;br&gt;&lt;div&gt;&lt;font style=&quot;font-size: 11px&quot;&gt;&lt;font color=&quot;#cccccc&quot;&gt;%c4Description%&lt;/font&gt;&lt;/div&gt;" id="nFB4tpNnGNIT1_HhN5Ei-133">
          <mxCell style="rounded=1;whiteSpace=wrap;html=1;labelBackgroundColor=none;fillColor=#8C8496;fontColor=#ffffff;align=center;arcSize=10;strokeColor=#736782;metaEdit=1;resizable=0;points=[[0.25,0,0],[0.5,0,0],[0.75,0,0],[1,0.25,0],[1,0.5,0],[1,0.75,0],[0.75,1,0],[0.5,1,0],[0.25,1,0],[0,0.75,0],[0,0.5,0],[0,0.25,0]];" parent="HqGlKzRuzg-hRhUa5EaZ-7" vertex="1">
            <mxGeometry x="30" y="45" width="240" height="120" as="geometry" />
          </mxCell>
        </object>
        <object placeholders="1" c4Name="Поставщик ресурсов ЖКХ" c4Type="Software System" c4Description="" label="&lt;font style=&quot;font-size: 16px&quot;&gt;&lt;b&gt;%c4Name%&lt;/b&gt;&lt;/font&gt;&lt;div&gt;[%c4Type%]&lt;/div&gt;&lt;br&gt;&lt;div&gt;&lt;font style=&quot;font-size: 11px&quot;&gt;&lt;font color=&quot;#cccccc&quot;&gt;%c4Description%&lt;/font&gt;&lt;/div&gt;" id="nFB4tpNnGNIT1_HhN5Ei-203">
          <mxCell style="rounded=1;whiteSpace=wrap;html=1;labelBackgroundColor=none;fillColor=#8C8496;fontColor=#ffffff;align=center;arcSize=10;strokeColor=#736782;metaEdit=1;resizable=0;points=[[0.25,0,0],[0.5,0,0],[0.75,0,0],[1,0.25,0],[1,0.5,0],[1,0.75,0],[0.75,1,0],[0.5,1,0],[0.25,1,0],[0,0.75,0],[0,0.5,0],[0,0.25,0]];" parent="HqGlKzRuzg-hRhUa5EaZ-7" vertex="1">
            <mxGeometry y="70" width="240" height="120" as="geometry" />
          </mxCell>
        </object>
        <mxCell id="HqGlKzRuzg-hRhUa5EaZ-9" value="" style="group" vertex="1" connectable="0" parent="1">
          <mxGeometry x="1470" y="250" width="150" height="80" as="geometry" />
        </mxCell>
        <mxCell id="nFB4tpNnGNIT1_HhN5Ei-196" value="" style="image;html=1;image=img/lib/clip_art/networking/Firewall_02_128x128.png" parent="HqGlKzRuzg-hRhUa5EaZ-9" vertex="1">
          <mxGeometry width="80" height="80" as="geometry" />
        </mxCell>
        <mxCell id="nFB4tpNnGNIT1_HhN5Ei-198" value="Firewall" style="text;html=1;align=center;verticalAlign=middle;whiteSpace=wrap;rounded=0;" parent="HqGlKzRuzg-hRhUa5EaZ-9" vertex="1">
          <mxGeometry x="90" y="25" width="60" height="30" as="geometry" />
        </mxCell>
        <mxCell id="HqGlKzRuzg-hRhUa5EaZ-10" value="" style="group" vertex="1" connectable="0" parent="1">
          <mxGeometry x="2500" y="1690" width="150" height="80" as="geometry" />
        </mxCell>
        <mxCell id="HqGlKzRuzg-hRhUa5EaZ-11" value="" style="image;html=1;image=img/lib/clip_art/networking/Firewall_02_128x128.png" vertex="1" parent="HqGlKzRuzg-hRhUa5EaZ-10">
          <mxGeometry width="80" height="80" as="geometry" />
        </mxCell>
        <mxCell id="HqGlKzRuzg-hRhUa5EaZ-12" value="Firewall" style="text;html=1;align=center;verticalAlign=middle;whiteSpace=wrap;rounded=0;" vertex="1" parent="HqGlKzRuzg-hRhUa5EaZ-10">
          <mxGeometry x="90" y="25" width="60" height="30" as="geometry" />
        </mxCell>
        <mxCell id="HqGlKzRuzg-hRhUa5EaZ-14" style="edgeStyle=orthogonalEdgeStyle;rounded=0;orthogonalLoop=1;jettySize=auto;html=1;exitX=0;exitY=0.75;exitDx=0;exitDy=0;exitPerimeter=0;entryX=0.5;entryY=1;entryDx=0;entryDy=0;" edge="1" parent="1" source="HqGlKzRuzg-hRhUa5EaZ-13" target="HqGlKzRuzg-hRhUa5EaZ-11">
          <mxGeometry relative="1" as="geometry" />
        </mxCell>
        <object placeholders="1" c4Name="Мобильный пользователь" c4Type="Person" c4Description="Пользователи мобильных приложений" label="&lt;font style=&quot;font-size: 16px&quot;&gt;&lt;b&gt;%c4Name%&lt;/b&gt;&lt;/font&gt;&lt;div&gt;[%c4Type%]&lt;/div&gt;&lt;br&gt;&lt;div&gt;&lt;font style=&quot;font-size: 11px&quot;&gt;&lt;font color=&quot;#cccccc&quot;&gt;%c4Description%&lt;/font&gt;&lt;/div&gt;" id="HqGlKzRuzg-hRhUa5EaZ-13">
          <mxCell style="html=1;fontSize=11;dashed=0;whiteSpace=wrap;fillColor=#083F75;strokeColor=#06315C;fontColor=#ffffff;shape=mxgraph.c4.person2;align=center;metaEdit=1;points=[[0.5,0,0],[1,0.5,0],[1,0.75,0],[0.75,1,0],[0.5,1,0],[0.25,1,0],[0,0.75,0],[0,0.5,0]];resizable=0;" vertex="1" parent="1">
            <mxGeometry x="2765" y="1632.5" width="200" height="180" as="geometry" />
          </mxCell>
        </object>
        <mxCell id="HqGlKzRuzg-hRhUa5EaZ-15" style="edgeStyle=orthogonalEdgeStyle;rounded=0;orthogonalLoop=1;jettySize=auto;html=1;exitX=0.5;exitY=0;exitDx=0;exitDy=0;entryX=0.5;entryY=0;entryDx=0;entryDy=0;entryPerimeter=0;" edge="1" parent="1" source="HqGlKzRuzg-hRhUa5EaZ-11" target="HqGlKzRuzg-hRhUa5EaZ-4">
          <mxGeometry relative="1" as="geometry" />
        </mxCell>
        <mxCell id="HqGlKzRuzg-hRhUa5EaZ-16" style="edgeStyle=orthogonalEdgeStyle;rounded=0;orthogonalLoop=1;jettySize=auto;html=1;exitX=0;exitY=0.5;exitDx=0;exitDy=0;exitPerimeter=0;entryX=1;entryY=0.5;entryDx=0;entryDy=0;entryPerimeter=0;fillColor=#f8cecc;strokeColor=#000000;" edge="1" parent="1" source="HqGlKzRuzg-hRhUa5EaZ-4" target="nFB4tpNnGNIT1_HhN5Ei-173">
          <mxGeometry relative="1" as="geometry">
            <mxPoint x="1280" y="1300" as="targetPoint" />
            <Array as="points">
              <mxPoint x="1270" y="1765" />
              <mxPoint x="1270" y="570" />
            </Array>
          </mxGeometry>
        </mxCell>
        <mxCell id="HqGlKzRuzg-hRhUa5EaZ-17" value="Авторизация&lt;div&gt;[TLS]&lt;/div&gt;" style="edgeLabel;html=1;align=center;verticalAlign=middle;resizable=0;points=[];" vertex="1" connectable="0" parent="HqGlKzRuzg-hRhUa5EaZ-16">
          <mxGeometry x="-0.5706" relative="1" as="geometry">
            <mxPoint as="offset" />
          </mxGeometry>
        </mxCell>
        <mxCell id="HqGlKzRuzg-hRhUa5EaZ-24" value="" style="group" vertex="1" connectable="0" parent="1">
          <mxGeometry x="980" y="2180" width="660" height="520" as="geometry" />
        </mxCell>
        <mxCell id="HqGlKzRuzg-hRhUa5EaZ-25" value="" style="rounded=1;whiteSpace=wrap;html=1;" vertex="1" parent="HqGlKzRuzg-hRhUa5EaZ-24">
          <mxGeometry width="660" height="520" as="geometry" />
        </mxCell>
        <mxCell id="HqGlKzRuzg-hRhUa5EaZ-26" value="&lt;b&gt;Сервисы интеллектуального домофона&lt;/b&gt;" style="text;html=1;align=center;verticalAlign=middle;whiteSpace=wrap;rounded=0;" vertex="1" parent="HqGlKzRuzg-hRhUa5EaZ-24">
          <mxGeometry x="40.595238095238095" y="20" width="130.95238095238096" height="105" as="geometry" />
        </mxCell>
        <mxCell id="HqGlKzRuzg-hRhUa5EaZ-27" style="edgeStyle=orthogonalEdgeStyle;rounded=0;orthogonalLoop=1;jettySize=auto;html=1;exitX=0.5;exitY=1;exitDx=0;exitDy=0;exitPerimeter=0;" edge="1" parent="HqGlKzRuzg-hRhUa5EaZ-24" source="HqGlKzRuzg-hRhUa5EaZ-28" target="HqGlKzRuzg-hRhUa5EaZ-29">
          <mxGeometry relative="1" as="geometry" />
        </mxCell>
        <mxCell id="HqGlKzRuzg-hRhUa5EaZ-60" style="edgeStyle=orthogonalEdgeStyle;rounded=0;orthogonalLoop=1;jettySize=auto;html=1;exitX=1;exitY=0.5;exitDx=0;exitDy=0;exitPerimeter=0;" edge="1" parent="HqGlKzRuzg-hRhUa5EaZ-24" source="HqGlKzRuzg-hRhUa5EaZ-28" target="HqGlKzRuzg-hRhUa5EaZ-58">
          <mxGeometry relative="1" as="geometry" />
        </mxCell>
        <mxCell id="HqGlKzRuzg-hRhUa5EaZ-61" value="Отправка команд" style="edgeLabel;html=1;align=center;verticalAlign=middle;resizable=0;points=[];" vertex="1" connectable="0" parent="HqGlKzRuzg-hRhUa5EaZ-60">
          <mxGeometry x="-0.244" y="2" relative="1" as="geometry">
            <mxPoint as="offset" />
          </mxGeometry>
        </mxCell>
        <object placeholders="1" c4Name="Сервис управления домофоном" c4Type="Container" c4Technology="Container: Kotlin, SpringBoot" c4Description="Позволяет пользователю проводдить все доступные операции с домофоном" label="&lt;font style=&quot;font-size: 16px&quot;&gt;&lt;b&gt;%c4Name%&lt;/b&gt;&lt;/font&gt;&lt;div&gt;[%c4Type%: %c4Technology%]&lt;/div&gt;&lt;br&gt;&lt;div&gt;&lt;font style=&quot;font-size: 11px&quot;&gt;&lt;font color=&quot;#E6E6E6&quot;&gt;%c4Description%&lt;/font&gt;&lt;/div&gt;" id="HqGlKzRuzg-hRhUa5EaZ-28">
          <mxCell style="rounded=1;whiteSpace=wrap;html=1;fontSize=11;labelBackgroundColor=none;fillColor=#23A2D9;fontColor=#ffffff;align=center;arcSize=10;strokeColor=#0E7DAD;metaEdit=1;resizable=0;points=[[0.25,0,0],[0.5,0,0],[0.75,0,0],[1,0.25,0],[1,0.5,0],[1,0.75,0],[0.75,1,0],[0.5,1,0],[0.25,1,0],[0,0.75,0],[0,0.5,0],[0,0.25,0]];" vertex="1" parent="HqGlKzRuzg-hRhUa5EaZ-24">
            <mxGeometry x="40.592380952380964" y="125" width="240" height="120" as="geometry" />
          </mxCell>
        </object>
        <object placeholders="1" c4Name="БД сервиса домофона" c4Type="Container" c4Technology="Postrgesql" c4Description="Хранит постоянные данные для сервиса домофона" label="&lt;font style=&quot;font-size: 16px&quot;&gt;&lt;b&gt;%c4Name%&lt;/b&gt;&lt;/font&gt;&lt;div&gt;[%c4Type%:&amp;nbsp;%c4Technology%]&lt;/div&gt;&lt;br&gt;&lt;div&gt;&lt;font style=&quot;font-size: 11px&quot;&gt;&lt;font color=&quot;#E6E6E6&quot;&gt;%c4Description%&lt;/font&gt;&lt;/div&gt;" id="HqGlKzRuzg-hRhUa5EaZ-29">
          <mxCell style="shape=cylinder3;size=15;whiteSpace=wrap;html=1;boundedLbl=1;rounded=0;labelBackgroundColor=none;fillColor=#23A2D9;fontSize=12;fontColor=#ffffff;align=center;strokeColor=#0E7DAD;metaEdit=1;points=[[0.5,0,0],[1,0.25,0],[1,0.5,0],[1,0.75,0],[0.5,1,0],[0,0.75,0],[0,0.5,0],[0,0.25,0]];resizable=0;" vertex="1" parent="HqGlKzRuzg-hRhUa5EaZ-24">
            <mxGeometry x="40.592380952380964" y="320" width="240" height="120" as="geometry" />
          </mxCell>
        </object>
        <object placeholders="1" c4Name="Сервис управления конечными устройствами" c4Type="Container" c4Technology="Container: Kotlin, SpringBoot" c4Description="Осуществляет подключение и доставку команд конечным устройствам" label="&lt;font style=&quot;font-size: 16px&quot;&gt;&lt;b&gt;%c4Name%&lt;/b&gt;&lt;/font&gt;&lt;div&gt;[%c4Type%: %c4Technology%]&lt;/div&gt;&lt;br&gt;&lt;div&gt;&lt;font style=&quot;font-size: 11px&quot;&gt;&lt;font color=&quot;#E6E6E6&quot;&gt;%c4Description%&lt;/font&gt;&lt;/div&gt;" id="HqGlKzRuzg-hRhUa5EaZ-58">
          <mxCell style="rounded=1;whiteSpace=wrap;html=1;fontSize=11;labelBackgroundColor=none;fillColor=#23A2D9;fontColor=#ffffff;align=center;arcSize=10;strokeColor=#0E7DAD;metaEdit=1;resizable=0;points=[[0.25,0,0],[0.5,0,0],[0.75,0,0],[1,0.25,0],[1,0.5,0],[1,0.75,0],[0.75,1,0],[0.5,1,0],[0.25,1,0],[0,0.75,0],[0,0.5,0],[0,0.25,0]];" vertex="1" parent="HqGlKzRuzg-hRhUa5EaZ-24">
            <mxGeometry x="360.002380952381" y="320" width="240" height="120" as="geometry" />
          </mxCell>
        </object>
        <mxCell id="HqGlKzRuzg-hRhUa5EaZ-36" value="" style="group" vertex="1" connectable="0" parent="1">
          <mxGeometry x="200" y="2190" width="650" height="720" as="geometry" />
        </mxCell>
        <mxCell id="HqGlKzRuzg-hRhUa5EaZ-33" value="" style="rounded=0;whiteSpace=wrap;html=1;fillColor=none;dashed=1;" vertex="1" parent="HqGlKzRuzg-hRhUa5EaZ-36">
          <mxGeometry y="50" width="650" height="670" as="geometry" />
        </mxCell>
        <mxCell id="HqGlKzRuzg-hRhUa5EaZ-18" value="" style="group" vertex="1" connectable="0" parent="HqGlKzRuzg-hRhUa5EaZ-36">
          <mxGeometry x="100" y="150" width="420" height="520" as="geometry" />
        </mxCell>
        <mxCell id="HqGlKzRuzg-hRhUa5EaZ-19" value="" style="rounded=1;whiteSpace=wrap;html=1;" vertex="1" parent="HqGlKzRuzg-hRhUa5EaZ-18">
          <mxGeometry width="420" height="520" as="geometry" />
        </mxCell>
        <mxCell id="HqGlKzRuzg-hRhUa5EaZ-20" value="&lt;b&gt;Сервисы обработки биометрии&lt;/b&gt;" style="text;html=1;align=center;verticalAlign=middle;whiteSpace=wrap;rounded=0;" vertex="1" parent="HqGlKzRuzg-hRhUa5EaZ-18">
          <mxGeometry x="31" y="20" width="100" height="105" as="geometry" />
        </mxCell>
        <mxCell id="HqGlKzRuzg-hRhUa5EaZ-21" style="edgeStyle=orthogonalEdgeStyle;rounded=0;orthogonalLoop=1;jettySize=auto;html=1;exitX=0.5;exitY=1;exitDx=0;exitDy=0;exitPerimeter=0;" edge="1" parent="HqGlKzRuzg-hRhUa5EaZ-18" source="HqGlKzRuzg-hRhUa5EaZ-22" target="HqGlKzRuzg-hRhUa5EaZ-23">
          <mxGeometry relative="1" as="geometry" />
        </mxCell>
        <object placeholders="1" c4Name="Сервис анализа биометрии" c4Type="Container" c4Technology="Container: Kotlin, SpringBoot" c4Description="Обрабатывает фотографию человека и отдает уникальный токен" label="&lt;font style=&quot;font-size: 16px&quot;&gt;&lt;b&gt;%c4Name%&lt;/b&gt;&lt;/font&gt;&lt;div&gt;[%c4Type%: %c4Technology%]&lt;/div&gt;&lt;br&gt;&lt;div&gt;&lt;font style=&quot;font-size: 11px&quot;&gt;&lt;font color=&quot;#E6E6E6&quot;&gt;%c4Description%&lt;/font&gt;&lt;/div&gt;" id="HqGlKzRuzg-hRhUa5EaZ-22">
          <mxCell style="rounded=1;whiteSpace=wrap;html=1;fontSize=11;labelBackgroundColor=none;fillColor=#23A2D9;fontColor=#ffffff;align=center;arcSize=10;strokeColor=#0E7DAD;metaEdit=1;resizable=0;points=[[0.25,0,0],[0.5,0,0],[0.75,0,0],[1,0.25,0],[1,0.5,0],[1,0.75,0],[0.75,1,0],[0.5,1,0],[0.25,1,0],[0,0.75,0],[0,0.5,0],[0,0.25,0]];" vertex="1" parent="HqGlKzRuzg-hRhUa5EaZ-18">
            <mxGeometry x="100" y="125" width="240" height="120" as="geometry" />
          </mxCell>
        </object>
        <object placeholders="1" c4Name="БД Биометрии" c4Type="Container" c4Technology="Postrgesql" c4Description="Хранит постоянные данные для Биометрии" label="&lt;font style=&quot;font-size: 16px&quot;&gt;&lt;b&gt;%c4Name%&lt;/b&gt;&lt;/font&gt;&lt;div&gt;[%c4Type%:&amp;nbsp;%c4Technology%]&lt;/div&gt;&lt;br&gt;&lt;div&gt;&lt;font style=&quot;font-size: 11px&quot;&gt;&lt;font color=&quot;#E6E6E6&quot;&gt;%c4Description%&lt;/font&gt;&lt;/div&gt;" id="HqGlKzRuzg-hRhUa5EaZ-23">
          <mxCell style="shape=cylinder3;size=15;whiteSpace=wrap;html=1;boundedLbl=1;rounded=0;labelBackgroundColor=none;fillColor=#23A2D9;fontSize=12;fontColor=#ffffff;align=center;strokeColor=#0E7DAD;metaEdit=1;points=[[0.5,0,0],[1,0.25,0],[1,0.5,0],[1,0.75,0],[0.5,1,0],[0,0.75,0],[0,0.5,0],[0,0.25,0]];resizable=0;" vertex="1" parent="HqGlKzRuzg-hRhUa5EaZ-18">
            <mxGeometry x="100" y="320" width="240" height="120" as="geometry" />
          </mxCell>
        </object>
        <mxCell id="HqGlKzRuzg-hRhUa5EaZ-30" value="" style="group" vertex="1" connectable="0" parent="HqGlKzRuzg-hRhUa5EaZ-36">
          <mxGeometry x="280" width="150" height="80" as="geometry" />
        </mxCell>
        <mxCell id="HqGlKzRuzg-hRhUa5EaZ-31" value="" style="image;html=1;image=img/lib/clip_art/networking/Firewall_02_128x128.png" vertex="1" parent="HqGlKzRuzg-hRhUa5EaZ-30">
          <mxGeometry width="80" height="80" as="geometry" />
        </mxCell>
        <mxCell id="HqGlKzRuzg-hRhUa5EaZ-32" value="Firewall" style="text;html=1;align=center;verticalAlign=middle;whiteSpace=wrap;rounded=0;" vertex="1" parent="HqGlKzRuzg-hRhUa5EaZ-30">
          <mxGeometry x="90" y="25" width="60" height="30" as="geometry" />
        </mxCell>
        <mxCell id="HqGlKzRuzg-hRhUa5EaZ-35" value="Выделенный&lt;div&gt;сетевой&lt;/div&gt;&lt;div&gt;сегмент&lt;/div&gt;" style="text;html=1;align=center;verticalAlign=middle;whiteSpace=wrap;rounded=0;" vertex="1" parent="HqGlKzRuzg-hRhUa5EaZ-36">
          <mxGeometry x="50" y="80" width="60" height="30" as="geometry" />
        </mxCell>
        <mxCell id="HqGlKzRuzg-hRhUa5EaZ-39" style="edgeStyle=orthogonalEdgeStyle;rounded=0;orthogonalLoop=1;jettySize=auto;html=1;exitX=0.5;exitY=1;exitDx=0;exitDy=0;entryX=0.5;entryY=0;entryDx=0;entryDy=0;entryPerimeter=0;" edge="1" parent="HqGlKzRuzg-hRhUa5EaZ-36" source="HqGlKzRuzg-hRhUa5EaZ-31" target="HqGlKzRuzg-hRhUa5EaZ-22">
          <mxGeometry relative="1" as="geometry" />
        </mxCell>
        <mxCell id="HqGlKzRuzg-hRhUa5EaZ-37" style="edgeStyle=orthogonalEdgeStyle;rounded=0;orthogonalLoop=1;jettySize=auto;html=1;exitX=0;exitY=0.5;exitDx=0;exitDy=0;exitPerimeter=0;entryX=0.5;entryY=0;entryDx=0;entryDy=0;" edge="1" parent="1" source="HqGlKzRuzg-hRhUa5EaZ-28" target="HqGlKzRuzg-hRhUa5EaZ-31">
          <mxGeometry relative="1" as="geometry" />
        </mxCell>
        <mxCell id="HqGlKzRuzg-hRhUa5EaZ-38" value="Проверка биометрии&lt;div&gt;[TLS]&lt;/div&gt;" style="edgeLabel;html=1;align=center;verticalAlign=middle;resizable=0;points=[];" vertex="1" connectable="0" parent="HqGlKzRuzg-hRhUa5EaZ-37">
          <mxGeometry x="-0.5509" y="-3" relative="1" as="geometry">
            <mxPoint as="offset" />
          </mxGeometry>
        </mxCell>
        <mxCell id="HqGlKzRuzg-hRhUa5EaZ-40" style="edgeStyle=orthogonalEdgeStyle;rounded=0;orthogonalLoop=1;jettySize=auto;html=1;exitX=0;exitY=0.75;exitDx=0;exitDy=0;exitPerimeter=0;entryX=0.5;entryY=0;entryDx=0;entryDy=0;entryPerimeter=0;" edge="1" parent="1" source="HqGlKzRuzg-hRhUa5EaZ-4" target="HqGlKzRuzg-hRhUa5EaZ-28">
          <mxGeometry relative="1" as="geometry" />
        </mxCell>
        <mxCell id="HqGlKzRuzg-hRhUa5EaZ-41" value="Управление&lt;div&gt;умным&lt;/div&gt;&lt;div&gt;домофоном&lt;/div&gt;&lt;div&gt;[TLS]&lt;/div&gt;" style="edgeLabel;html=1;align=center;verticalAlign=middle;resizable=0;points=[];" vertex="1" connectable="0" parent="HqGlKzRuzg-hRhUa5EaZ-40">
          <mxGeometry x="0.2278" y="-2" relative="1" as="geometry">
            <mxPoint as="offset" />
          </mxGeometry>
        </mxCell>
        <mxCell id="HqGlKzRuzg-hRhUa5EaZ-42" value="" style="group" vertex="1" connectable="0" parent="1">
          <mxGeometry x="1780" y="2180" width="670" height="520" as="geometry" />
        </mxCell>
        <mxCell id="HqGlKzRuzg-hRhUa5EaZ-43" value="" style="rounded=1;whiteSpace=wrap;html=1;" vertex="1" parent="HqGlKzRuzg-hRhUa5EaZ-42">
          <mxGeometry width="670" height="520" as="geometry" />
        </mxCell>
        <mxCell id="HqGlKzRuzg-hRhUa5EaZ-44" value="&lt;b&gt;Сервисы интеллектуального шлагбаума&lt;/b&gt;" style="text;html=1;align=center;verticalAlign=middle;whiteSpace=wrap;rounded=0;" vertex="1" parent="HqGlKzRuzg-hRhUa5EaZ-42">
          <mxGeometry x="49.452380952380956" y="20" width="159.52380952380955" height="105" as="geometry" />
        </mxCell>
        <mxCell id="HqGlKzRuzg-hRhUa5EaZ-45" style="edgeStyle=orthogonalEdgeStyle;rounded=0;orthogonalLoop=1;jettySize=auto;html=1;exitX=0.5;exitY=1;exitDx=0;exitDy=0;exitPerimeter=0;" edge="1" parent="HqGlKzRuzg-hRhUa5EaZ-42" source="HqGlKzRuzg-hRhUa5EaZ-46" target="HqGlKzRuzg-hRhUa5EaZ-47">
          <mxGeometry relative="1" as="geometry" />
        </mxCell>
        <object placeholders="1" c4Name="Сервис управления шлагбаумом" c4Type="Container" c4Technology="Container: Kotlin, SpringBoot" c4Description="Позволяет пользователю проводдить все доступные операции с шлагбаумом" label="&lt;font style=&quot;font-size: 16px&quot;&gt;&lt;b&gt;%c4Name%&lt;/b&gt;&lt;/font&gt;&lt;div&gt;[%c4Type%: %c4Technology%]&lt;/div&gt;&lt;br&gt;&lt;div&gt;&lt;font style=&quot;font-size: 11px&quot;&gt;&lt;font color=&quot;#E6E6E6&quot;&gt;%c4Description%&lt;/font&gt;&lt;/div&gt;" id="HqGlKzRuzg-hRhUa5EaZ-46">
          <mxCell style="rounded=1;whiteSpace=wrap;html=1;fontSize=11;labelBackgroundColor=none;fillColor=#23A2D9;fontColor=#ffffff;align=center;arcSize=10;strokeColor=#0E7DAD;metaEdit=1;resizable=0;points=[[0.25,0,0],[0.5,0,0],[0.75,0,0],[1,0.25,0],[1,0.5,0],[1,0.75,0],[0.75,1,0],[0.5,1,0],[0.25,1,0],[0,0.75,0],[0,0.5,0],[0,0.25,0]];" vertex="1" parent="HqGlKzRuzg-hRhUa5EaZ-42">
            <mxGeometry x="60.00380952380955" y="125" width="240" height="120" as="geometry" />
          </mxCell>
        </object>
        <object placeholders="1" c4Name="БД сервиса шлагбаумом" c4Type="Container" c4Technology="Postrgesql" c4Description="Хранит постоянные данные для сервиса домофона" label="&lt;font style=&quot;font-size: 16px&quot;&gt;&lt;b&gt;%c4Name%&lt;/b&gt;&lt;/font&gt;&lt;div&gt;[%c4Type%:&amp;nbsp;%c4Technology%]&lt;/div&gt;&lt;br&gt;&lt;div&gt;&lt;font style=&quot;font-size: 11px&quot;&gt;&lt;font color=&quot;#E6E6E6&quot;&gt;%c4Description%&lt;/font&gt;&lt;/div&gt;" id="HqGlKzRuzg-hRhUa5EaZ-47">
          <mxCell style="shape=cylinder3;size=15;whiteSpace=wrap;html=1;boundedLbl=1;rounded=0;labelBackgroundColor=none;fillColor=#23A2D9;fontSize=12;fontColor=#ffffff;align=center;strokeColor=#0E7DAD;metaEdit=1;points=[[0.5,0,0],[1,0.25,0],[1,0.5,0],[1,0.75,0],[0.5,1,0],[0,0.75,0],[0,0.5,0],[0,0.25,0]];resizable=0;" vertex="1" parent="HqGlKzRuzg-hRhUa5EaZ-42">
            <mxGeometry x="60.00380952380955" y="320" width="240" height="120" as="geometry" />
          </mxCell>
        </object>
        <object placeholders="1" c4Name="Сервис управления конечными устройствами" c4Type="Container" c4Technology="Container: Kotlin, SpringBoot" c4Description="Осуществляет подключение и доставку команд конечным устройствам" label="&lt;font style=&quot;font-size: 16px&quot;&gt;&lt;b&gt;%c4Name%&lt;/b&gt;&lt;/font&gt;&lt;div&gt;[%c4Type%: %c4Technology%]&lt;/div&gt;&lt;br&gt;&lt;div&gt;&lt;font style=&quot;font-size: 11px&quot;&gt;&lt;font color=&quot;#E6E6E6&quot;&gt;%c4Description%&lt;/font&gt;&lt;/div&gt;" id="HqGlKzRuzg-hRhUa5EaZ-73">
          <mxCell style="rounded=1;whiteSpace=wrap;html=1;fontSize=11;labelBackgroundColor=none;fillColor=#23A2D9;fontColor=#ffffff;align=center;arcSize=10;strokeColor=#0E7DAD;metaEdit=1;resizable=0;points=[[0.25,0,0],[0.5,0,0],[0.75,0,0],[1,0.25,0],[1,0.5,0],[1,0.75,0],[0.75,1,0],[0.5,1,0],[0.25,1,0],[0,0.75,0],[0,0.5,0],[0,0.25,0]];" vertex="1" parent="HqGlKzRuzg-hRhUa5EaZ-42">
            <mxGeometry x="390.00380952380954" y="320" width="240" height="120" as="geometry" />
          </mxCell>
        </object>
        <mxCell id="HqGlKzRuzg-hRhUa5EaZ-74" style="edgeStyle=orthogonalEdgeStyle;rounded=0;orthogonalLoop=1;jettySize=auto;html=1;exitX=1;exitY=0.5;exitDx=0;exitDy=0;exitPerimeter=0;entryX=0.5;entryY=0;entryDx=0;entryDy=0;entryPerimeter=0;" edge="1" parent="HqGlKzRuzg-hRhUa5EaZ-42" source="HqGlKzRuzg-hRhUa5EaZ-46" target="HqGlKzRuzg-hRhUa5EaZ-73">
          <mxGeometry relative="1" as="geometry" />
        </mxCell>
        <mxCell id="HqGlKzRuzg-hRhUa5EaZ-75" value="Отправка команд" style="edgeLabel;html=1;align=center;verticalAlign=middle;resizable=0;points=[];" vertex="1" connectable="0" parent="HqGlKzRuzg-hRhUa5EaZ-74">
          <mxGeometry x="-0.2174" relative="1" as="geometry">
            <mxPoint as="offset" />
          </mxGeometry>
        </mxCell>
        <mxCell id="HqGlKzRuzg-hRhUa5EaZ-48" style="edgeStyle=orthogonalEdgeStyle;rounded=0;orthogonalLoop=1;jettySize=auto;html=1;exitX=1;exitY=0.75;exitDx=0;exitDy=0;exitPerimeter=0;entryX=0.5;entryY=0;entryDx=0;entryDy=0;entryPerimeter=0;" edge="1" parent="1" source="HqGlKzRuzg-hRhUa5EaZ-4" target="HqGlKzRuzg-hRhUa5EaZ-46">
          <mxGeometry relative="1" as="geometry" />
        </mxCell>
        <mxCell id="HqGlKzRuzg-hRhUa5EaZ-49" value="Управление&lt;div&gt;умным&lt;/div&gt;&lt;div&gt;шлагбаумом&lt;/div&gt;&lt;div&gt;[TLS]&lt;/div&gt;" style="edgeLabel;html=1;align=center;verticalAlign=middle;resizable=0;points=[];" vertex="1" connectable="0" parent="HqGlKzRuzg-hRhUa5EaZ-48">
          <mxGeometry x="-0.0481" y="2" relative="1" as="geometry">
            <mxPoint as="offset" />
          </mxGeometry>
        </mxCell>
        <mxCell id="HqGlKzRuzg-hRhUa5EaZ-56" value="" style="group" vertex="1" connectable="0" parent="1">
          <mxGeometry x="1160" y="3240" width="260" height="140" as="geometry" />
        </mxCell>
        <object placeholders="1" c4Name="Система управления домофоном" c4Type="Software System" c4Description="Конечное устройство" label="&lt;font style=&quot;font-size: 16px&quot;&gt;&lt;b&gt;%c4Name%&lt;/b&gt;&lt;/font&gt;&lt;div&gt;[%c4Type%]&lt;/div&gt;&lt;br&gt;&lt;div&gt;&lt;font style=&quot;font-size: 11px&quot;&gt;&lt;font color=&quot;#cccccc&quot;&gt;%c4Description%&lt;/font&gt;&lt;/div&gt;" id="HqGlKzRuzg-hRhUa5EaZ-50">
          <mxCell style="rounded=1;whiteSpace=wrap;html=1;labelBackgroundColor=none;fillColor=#8C8496;fontColor=#ffffff;align=center;arcSize=10;strokeColor=#736782;metaEdit=1;resizable=0;points=[[0.25,0,0],[0.5,0,0],[0.75,0,0],[1,0.25,0],[1,0.5,0],[1,0.75,0],[0.75,1,0],[0.5,1,0],[0.25,1,0],[0,0.75,0],[0,0.5,0],[0,0.25,0]];" vertex="1" parent="HqGlKzRuzg-hRhUa5EaZ-56">
            <mxGeometry width="240" height="120" as="geometry" />
          </mxCell>
        </object>
        <object placeholders="1" c4Name="Система управления домофоном" c4Type="Software System" c4Description="Конечное устройство" label="&lt;font style=&quot;font-size: 16px&quot;&gt;&lt;b&gt;%c4Name%&lt;/b&gt;&lt;/font&gt;&lt;div&gt;[%c4Type%]&lt;/div&gt;&lt;br&gt;&lt;div&gt;&lt;font style=&quot;font-size: 11px&quot;&gt;&lt;font color=&quot;#cccccc&quot;&gt;%c4Description%&lt;/font&gt;&lt;/div&gt;" id="HqGlKzRuzg-hRhUa5EaZ-51">
          <mxCell style="rounded=1;whiteSpace=wrap;html=1;labelBackgroundColor=none;fillColor=#8C8496;fontColor=#ffffff;align=center;arcSize=10;strokeColor=#736782;metaEdit=1;resizable=0;points=[[0.25,0,0],[0.5,0,0],[0.75,0,0],[1,0.25,0],[1,0.5,0],[1,0.75,0],[0.75,1,0],[0.5,1,0],[0.25,1,0],[0,0.75,0],[0,0.5,0],[0,0.25,0]];" vertex="1" parent="HqGlKzRuzg-hRhUa5EaZ-56">
            <mxGeometry x="10" y="10" width="240" height="120" as="geometry" />
          </mxCell>
        </object>
        <object placeholders="1" c4Name="Система управления домофоном" c4Type="Software System" c4Description="Конечное устройство" label="&lt;font style=&quot;font-size: 16px&quot;&gt;&lt;b&gt;%c4Name%&lt;/b&gt;&lt;/font&gt;&lt;div&gt;[%c4Type%]&lt;/div&gt;&lt;br&gt;&lt;div&gt;&lt;font style=&quot;font-size: 11px&quot;&gt;&lt;font color=&quot;#cccccc&quot;&gt;%c4Description%&lt;/font&gt;&lt;/div&gt;" id="HqGlKzRuzg-hRhUa5EaZ-52">
          <mxCell style="rounded=1;whiteSpace=wrap;html=1;labelBackgroundColor=none;fillColor=#8C8496;fontColor=#ffffff;align=center;arcSize=10;strokeColor=#736782;metaEdit=1;resizable=0;points=[[0.25,0,0],[0.5,0,0],[0.75,0,0],[1,0.25,0],[1,0.5,0],[1,0.75,0],[0.75,1,0],[0.5,1,0],[0.25,1,0],[0,0.75,0],[0,0.5,0],[0,0.25,0]];" vertex="1" parent="HqGlKzRuzg-hRhUa5EaZ-56">
            <mxGeometry x="20" y="20" width="240" height="120" as="geometry" />
          </mxCell>
        </object>
        <mxCell id="HqGlKzRuzg-hRhUa5EaZ-62" style="edgeStyle=orthogonalEdgeStyle;rounded=0;orthogonalLoop=1;jettySize=auto;html=1;exitX=0.5;exitY=1;exitDx=0;exitDy=0;exitPerimeter=0;entryX=0.5;entryY=0;entryDx=0;entryDy=0;entryPerimeter=0;" edge="1" parent="1" source="HqGlKzRuzg-hRhUa5EaZ-58" target="HqGlKzRuzg-hRhUa5EaZ-50">
          <mxGeometry relative="1" as="geometry" />
        </mxCell>
        <mxCell id="HqGlKzRuzg-hRhUa5EaZ-63" value="Управление&lt;div&gt;конечными&lt;/div&gt;&lt;div&gt;устройствами&lt;/div&gt;&lt;div&gt;[TLS]&lt;/div&gt;" style="edgeLabel;html=1;align=center;verticalAlign=middle;resizable=0;points=[];" vertex="1" connectable="0" parent="HqGlKzRuzg-hRhUa5EaZ-62">
          <mxGeometry x="-0.1" y="1" relative="1" as="geometry">
            <mxPoint as="offset" />
          </mxGeometry>
        </mxCell>
        <mxCell id="HqGlKzRuzg-hRhUa5EaZ-64" style="edgeStyle=orthogonalEdgeStyle;rounded=0;orthogonalLoop=1;jettySize=auto;html=1;exitX=0.75;exitY=0;exitDx=0;exitDy=0;exitPerimeter=0;entryX=1;entryY=0.75;entryDx=0;entryDy=0;entryPerimeter=0;" edge="1" parent="1" source="HqGlKzRuzg-hRhUa5EaZ-28" target="nFB4tpNnGNIT1_HhN5Ei-141">
          <mxGeometry relative="1" as="geometry" />
        </mxCell>
        <mxCell id="HqGlKzRuzg-hRhUa5EaZ-66" value="&lt;div&gt;Передача сырых данных&lt;/div&gt;[CDC]" style="edgeLabel;html=1;align=center;verticalAlign=middle;resizable=0;points=[];" vertex="1" connectable="0" parent="HqGlKzRuzg-hRhUa5EaZ-64">
          <mxGeometry x="-0.5616" y="1" relative="1" as="geometry">
            <mxPoint x="30" y="-4" as="offset" />
          </mxGeometry>
        </mxCell>
        <mxCell id="HqGlKzRuzg-hRhUa5EaZ-79" value="" style="group" vertex="1" connectable="0" parent="1">
          <mxGeometry x="2000" y="3250" width="260" height="140" as="geometry" />
        </mxCell>
        <object placeholders="1" c4Name="Система управления шлагбаумом" c4Type="Software System" c4Description="Конечное устроуство" label="&lt;font style=&quot;font-size: 16px&quot;&gt;&lt;b&gt;%c4Name%&lt;/b&gt;&lt;/font&gt;&lt;div&gt;[%c4Type%]&lt;/div&gt;&lt;br&gt;&lt;div&gt;&lt;font style=&quot;font-size: 11px&quot;&gt;&lt;font color=&quot;#cccccc&quot;&gt;%c4Description%&lt;/font&gt;&lt;/div&gt;" id="HqGlKzRuzg-hRhUa5EaZ-76">
          <mxCell style="rounded=1;whiteSpace=wrap;html=1;labelBackgroundColor=none;fillColor=#8C8496;fontColor=#ffffff;align=center;arcSize=10;strokeColor=#736782;metaEdit=1;resizable=0;points=[[0.25,0,0],[0.5,0,0],[0.75,0,0],[1,0.25,0],[1,0.5,0],[1,0.75,0],[0.75,1,0],[0.5,1,0],[0.25,1,0],[0,0.75,0],[0,0.5,0],[0,0.25,0]];" vertex="1" parent="HqGlKzRuzg-hRhUa5EaZ-79">
            <mxGeometry width="240" height="120" as="geometry" />
          </mxCell>
        </object>
        <object placeholders="1" c4Name="Система управления шлагбаумом" c4Type="Software System" c4Description="Конечное устроуство" label="&lt;font style=&quot;font-size: 16px&quot;&gt;&lt;b&gt;%c4Name%&lt;/b&gt;&lt;/font&gt;&lt;div&gt;[%c4Type%]&lt;/div&gt;&lt;br&gt;&lt;div&gt;&lt;font style=&quot;font-size: 11px&quot;&gt;&lt;font color=&quot;#cccccc&quot;&gt;%c4Description%&lt;/font&gt;&lt;/div&gt;" id="HqGlKzRuzg-hRhUa5EaZ-77">
          <mxCell style="rounded=1;whiteSpace=wrap;html=1;labelBackgroundColor=none;fillColor=#8C8496;fontColor=#ffffff;align=center;arcSize=10;strokeColor=#736782;metaEdit=1;resizable=0;points=[[0.25,0,0],[0.5,0,0],[0.75,0,0],[1,0.25,0],[1,0.5,0],[1,0.75,0],[0.75,1,0],[0.5,1,0],[0.25,1,0],[0,0.75,0],[0,0.5,0],[0,0.25,0]];" vertex="1" parent="HqGlKzRuzg-hRhUa5EaZ-79">
            <mxGeometry x="10" y="10" width="240" height="120" as="geometry" />
          </mxCell>
        </object>
        <object placeholders="1" c4Name="Система управления шлагбаумом" c4Type="Software System" c4Description="Конечное устроуство" label="&lt;font style=&quot;font-size: 16px&quot;&gt;&lt;b&gt;%c4Name%&lt;/b&gt;&lt;/font&gt;&lt;div&gt;[%c4Type%]&lt;/div&gt;&lt;br&gt;&lt;div&gt;&lt;font style=&quot;font-size: 11px&quot;&gt;&lt;font color=&quot;#cccccc&quot;&gt;%c4Description%&lt;/font&gt;&lt;/div&gt;" id="HqGlKzRuzg-hRhUa5EaZ-78">
          <mxCell style="rounded=1;whiteSpace=wrap;html=1;labelBackgroundColor=none;fillColor=#8C8496;fontColor=#ffffff;align=center;arcSize=10;strokeColor=#736782;metaEdit=1;resizable=0;points=[[0.25,0,0],[0.5,0,0],[0.75,0,0],[1,0.25,0],[1,0.5,0],[1,0.75,0],[0.75,1,0],[0.5,1,0],[0.25,1,0],[0,0.75,0],[0,0.5,0],[0,0.25,0]];" vertex="1" parent="HqGlKzRuzg-hRhUa5EaZ-79">
            <mxGeometry x="20" y="20" width="240" height="120" as="geometry" />
          </mxCell>
        </object>
        <mxCell id="HqGlKzRuzg-hRhUa5EaZ-80" style="edgeStyle=orthogonalEdgeStyle;rounded=0;orthogonalLoop=1;jettySize=auto;html=1;exitX=0.5;exitY=1;exitDx=0;exitDy=0;exitPerimeter=0;" edge="1" parent="1" source="HqGlKzRuzg-hRhUa5EaZ-73" target="HqGlKzRuzg-hRhUa5EaZ-76">
          <mxGeometry relative="1" as="geometry" />
        </mxCell>
        <mxCell id="HqGlKzRuzg-hRhUa5EaZ-81" value="Управление&lt;div&gt;конечными&lt;/div&gt;&lt;div&gt;устройствами&lt;/div&gt;&lt;div&gt;[TLS]&lt;/div&gt;" style="edgeLabel;html=1;align=center;verticalAlign=middle;resizable=0;points=[];" vertex="1" connectable="0" parent="HqGlKzRuzg-hRhUa5EaZ-80">
          <mxGeometry x="0.025" y="-2" relative="1" as="geometry">
            <mxPoint as="offset" />
          </mxGeometry>
        </mxCell>
        <mxCell id="HqGlKzRuzg-hRhUa5EaZ-82" style="edgeStyle=orthogonalEdgeStyle;rounded=0;orthogonalLoop=1;jettySize=auto;html=1;exitX=0;exitY=0.5;exitDx=0;exitDy=0;exitPerimeter=0;entryX=1;entryY=0.175;entryDx=0;entryDy=0;entryPerimeter=0;" edge="1" parent="1" source="HqGlKzRuzg-hRhUa5EaZ-46" target="nFB4tpNnGNIT1_HhN5Ei-141">
          <mxGeometry relative="1" as="geometry">
            <mxPoint x="1060" y="1610" as="targetPoint" />
            <Array as="points">
              <mxPoint x="1700" y="2365" />
              <mxPoint x="1700" y="2130" />
              <mxPoint x="1343" y="2130" />
              <mxPoint x="1343" y="1401" />
            </Array>
          </mxGeometry>
        </mxCell>
        <mxCell id="HqGlKzRuzg-hRhUa5EaZ-83" value="&lt;div&gt;Передача сырых данных&lt;/div&gt;[CDC]" style="edgeLabel;html=1;align=center;verticalAlign=middle;resizable=0;points=[];" vertex="1" connectable="0" parent="HqGlKzRuzg-hRhUa5EaZ-82">
          <mxGeometry x="-0.658" y="-2" relative="1" as="geometry">
            <mxPoint as="offset" />
          </mxGeometry>
        </mxCell>
      </root>
    </mxGraphModel>
  </diagram>
</mxfile>
